<?xml version="1.0" encoding="UTF-8"?>
<!DOCTYPE svg PUBLIC "-//W3C//DTD SVG 1.1//EN" "http://www.w3.org/Graphics/SVG/1.1/DTD/svg11.dtd">
<svg xmlns="http://www.w3.org/2000/svg" version="1.1" width="3840px" height="2160px" style="shape-rendering:geometricPrecision; text-rendering:geometricPrecision; image-rendering:optimizeQuality; fill-rule:evenodd; clip-rule:evenodd" xmlns:xlink="http://www.w3.org/1999/xlink">
<g><path style="opacity:1" fill="#111111" d="M -0.5,-0.5 C 1279.5,-0.5 2559.5,-0.5 3839.5,-0.5C 3839.5,719.5 3839.5,1439.5 3839.5,2159.5C 2559.5,2159.5 1279.5,2159.5 -0.5,2159.5C -0.5,1439.5 -0.5,719.5 -0.5,-0.5 Z"/></g>
<g><path style="opacity:1" fill="#7a7a7a" d="M 1633.5,182.5 C 1632.67,178.018 1632.17,173.351 1632,168.5C 1625.62,162.738 1619.45,156.738 1613.5,150.5C 1603.29,155.873 1593.46,161.873 1584,168.5C 1583.86,171.763 1584.86,174.763 1587,177.5C 1587.79,183.22 1587.62,188.886 1586.5,194.5C 1584.45,195.663 1582.45,195.496 1580.5,194C 1578.48,191.135 1577.15,187.968 1576.5,184.5C 1572.07,183.757 1569.41,185.59 1568.5,190C 1571.3,193.636 1574.3,197.136 1577.5,200.5C 1578.45,202.045 1578.79,203.712 1578.5,205.5C 1572.37,199.87 1566.37,194.036 1560.5,188C 1558.98,186.991 1557.31,186.491 1555.5,186.5C 1555.8,192.577 1555.3,198.577 1554,204.5C 1542.69,213.569 1530.52,221.236 1517.5,227.5C 1515.73,226.909 1514.07,226.076 1512.5,225C 1524.09,216.622 1535.59,208.122 1547,199.5C 1546.92,191.383 1543.42,189.216 1536.5,193C 1534.59,195.067 1532.92,197.234 1531.5,199.5C 1531.34,197.801 1531.51,196.134 1532,194.5C 1536.72,189.438 1541.72,184.772 1547,180.5C 1547.58,176.045 1547.08,171.712 1545.5,167.5C 1546.5,167.414 1547.33,167.748 1548,168.5C 1555.45,163.861 1562.95,159.361 1570.5,155C 1572.11,154.28 1573.61,154.446 1575,155.5C 1575.91,154.672 1576.58,153.672 1577,152.5C 1577.18,149.118 1577.68,145.785 1578.5,142.5C 1580.31,141.141 1581.81,141.475 1583,143.5C 1583.01,146.659 1583.84,149.493 1585.5,152C 1589.83,152.667 1594.17,152.667 1598.5,152C 1600,150.509 1600.84,148.676 1601,146.5C 1601.72,145.941 1602.56,145.608 1603.5,145.5C 1615.87,148.939 1628.2,152.439 1640.5,156C 1640.83,156.333 1641.17,156.667 1641.5,157C 1639.37,160.764 1636.87,164.264 1634,167.5C 1633.5,172.489 1633.33,177.489 1633.5,182.5 Z"/></g>
<g><path style="opacity:1" fill="#dfdfdf" d="M 1633.5,182.5 C 1634.08,183.773 1634.74,183.773 1635.5,182.5C 1637.41,178.34 1639.58,174.34 1642,170.5C 1643.05,169.483 1644.22,169.316 1645.5,170C 1647.7,175.964 1649.03,182.131 1649.5,188.5C 1644.21,189.655 1638.87,190.822 1633.5,192C 1632.07,192.465 1630.9,193.299 1630,194.5C 1629.33,200.5 1629.33,206.5 1630,212.5C 1658.78,227.531 1687.62,242.365 1716.5,257C 1718.61,258.141 1720.44,259.641 1722,261.5C 1724.18,267.25 1727.02,272.583 1730.5,277.5C 1730.44,278.609 1730.11,279.609 1729.5,280.5C 1723.82,280.666 1718.16,280.499 1712.5,280C 1710.41,276.492 1708.08,273.158 1705.5,270C 1701.46,269.173 1697.46,269.34 1693.5,270.5C 1692.83,273.863 1692.17,277.197 1691.5,280.5C 1688.92,280.545 1686.92,279.545 1685.5,277.5C 1685.11,275.29 1683.77,273.957 1681.5,273.5C 1679.25,270.705 1676.58,268.372 1673.5,266.5C 1671.7,265.207 1670.04,263.707 1668.5,262C 1667.55,261.517 1666.55,261.351 1665.5,261.5C 1663.57,258.728 1664.23,256.895 1667.5,256C 1670.17,255.667 1672.83,255.333 1675.5,255C 1676.83,253.667 1676.83,252.333 1675.5,251C 1658.08,242.12 1641.08,232.454 1624.5,222C 1610.5,221.667 1596.5,221.333 1582.5,221C 1581.69,220.692 1581.03,220.192 1580.5,219.5C 1582.1,216.656 1582.6,213.656 1582,210.5C 1580.33,209.154 1579.16,207.487 1578.5,205.5C 1578.79,203.712 1578.45,202.045 1577.5,200.5C 1574.3,197.136 1571.3,193.636 1568.5,190C 1569.41,185.59 1572.07,183.757 1576.5,184.5C 1577.15,187.968 1578.48,191.135 1580.5,194C 1582.45,195.496 1584.45,195.663 1586.5,194.5C 1587.62,188.886 1587.79,183.22 1587,177.5C 1584.86,174.763 1583.86,171.763 1584,168.5C 1593.46,161.873 1603.29,155.873 1613.5,150.5C 1619.45,156.738 1625.62,162.738 1632,168.5C 1632.17,173.351 1632.67,178.018 1633.5,182.5 Z"/></g>
<g><path style="opacity:1" fill="#dddddd" d="M 1530.5,172.5 C 1529.57,173.568 1529.23,174.901 1529.5,176.5C 1530.79,176.737 1531.79,176.404 1532.5,175.5C 1535.87,172.058 1539.37,168.725 1543,165.5C 1543.71,166.381 1544.54,167.047 1545.5,167.5C 1547.08,171.712 1547.58,176.045 1547,180.5C 1541.72,184.772 1536.72,189.438 1532,194.5C 1531.51,196.134 1531.34,197.801 1531.5,199.5C 1528.45,203.058 1525.11,206.558 1521.5,210C 1520.5,210.667 1519.5,210.667 1518.5,210C 1517.79,208.745 1516.96,207.579 1516,206.5C 1516.2,192.503 1516.7,178.503 1517.5,164.5C 1523.72,162.455 1530.05,160.789 1536.5,159.5C 1536.66,160.873 1536.49,162.207 1536,163.5C 1533.65,166.194 1531.82,169.194 1530.5,172.5 Z"/></g>
<g><path style="opacity:1" fill="#161616" d="M 1574.5,171.5 C 1577.41,171.262 1579.74,172.262 1581.5,174.5C 1582.75,176.006 1582.75,177.506 1581.5,179C 1576.79,180.941 1571.96,182.441 1567,183.5C 1563.67,183.839 1561.84,182.339 1561.5,179C 1562.13,178.25 1562.63,177.416 1563,176.5C 1563.89,177.081 1564.89,177.415 1566,177.5C 1568.94,176.607 1571.77,175.607 1574.5,174.5C 1574.5,173.5 1574.5,172.5 1574.5,171.5 Z"/></g>
<g><path style="opacity:1" fill="#717171" d="M 1530.5,172.5 C 1530.29,174.179 1530.95,175.179 1532.5,175.5C 1531.79,176.404 1530.79,176.737 1529.5,176.5C 1529.23,174.901 1529.57,173.568 1530.5,172.5 Z"/></g>
<g><path style="opacity:1" fill="#dddddd" d="M 1479.5,257.5 C 1479.5,242.833 1479.5,228.167 1479.5,213.5C 1480.79,213.737 1481.79,213.404 1482.5,212.5C 1485.07,211.55 1487.57,211.55 1490,212.5C 1490.5,215.817 1490.67,219.15 1490.5,222.5C 1494.39,221.554 1498.06,220.054 1501.5,218C 1502.52,216.951 1502.68,215.784 1502,214.5C 1491.31,209.09 1480.48,203.756 1469.5,198.5C 1468.57,197.311 1468.24,195.978 1468.5,194.5C 1473.31,192.843 1477.81,190.51 1482,187.5C 1487.3,191.969 1492.47,196.635 1497.5,201.5C 1498.61,200.277 1498.78,198.944 1498,197.5C 1495.98,193.1 1494.14,188.6 1492.5,184C 1492.77,180.836 1494.43,179.836 1497.5,181C 1503.98,191.959 1509.65,203.292 1514.5,215C 1513.13,218.542 1510.8,221.375 1507.5,223.5C 1507.08,230.117 1508.08,236.617 1510.5,243C 1503.54,251.294 1495.87,258.961 1487.5,266C 1485.5,266.667 1483.5,266.667 1481.5,266C 1480.48,264.951 1480.32,263.784 1481,262.5C 1489.12,256.715 1496.95,250.548 1504.5,244C 1502.94,241.885 1500.94,240.885 1498.5,241C 1492.65,247.015 1486.65,252.848 1480.5,258.5C 1479.89,258.376 1479.56,258.043 1479.5,257.5 Z"/></g>
<g><path style="opacity:1" fill="#444444" d="M 1482.5,212.5 C 1481.79,213.404 1480.79,213.737 1479.5,213.5C 1479.5,228.167 1479.5,242.833 1479.5,257.5C 1478.5,242.676 1478.17,227.676 1478.5,212.5C 1479.83,212.5 1481.17,212.5 1482.5,212.5 Z"/></g>
<g><path style="opacity:1" fill="#dbdbdb" d="M 1441.5,240.5 C 1448.83,240.5 1456.17,240.5 1463.5,240.5C 1460.42,253.5 1456.75,266.333 1452.5,279C 1445.67,286.159 1438.51,292.993 1431,299.5C 1428.31,298.489 1426.81,296.489 1426.5,293.5C 1430.08,288.414 1434.25,283.747 1439,279.5C 1439.33,267.5 1439.67,255.5 1440,243.5C 1441.04,242.756 1441.54,241.756 1441.5,240.5 Z"/></g>
<g><path style="opacity:1" fill="#777777" d="M 1673.5,266.5 C 1676.58,268.372 1679.25,270.705 1681.5,273.5C 1680.45,273.351 1679.45,273.517 1678.5,274C 1674.99,278.675 1670.99,282.841 1666.5,286.5C 1663.3,285.483 1661.47,283.483 1661,280.5C 1664.02,275.977 1667.86,272.31 1672.5,269.5C 1673.39,268.675 1673.72,267.675 1673.5,266.5 Z"/></g>
<g><path style="opacity:1" fill="#767676" d="M 1730.5,277.5 C 1744.76,278.316 1759.09,278.816 1773.5,279C 1774.42,279.278 1775.08,279.778 1775.5,280.5C 1773.95,281.23 1773.12,282.563 1773,284.5C 1772.5,289.155 1772.33,293.821 1772.5,298.5C 1771.21,293.664 1770.04,288.664 1769,283.5C 1768.53,282.069 1767.7,280.903 1766.5,280C 1754.12,279.207 1741.79,279.373 1729.5,280.5C 1730.11,279.609 1730.44,278.609 1730.5,277.5 Z"/></g>
<g><path style="opacity:1" fill="#7b7b7b" d="M 1685.5,277.5 C 1686.92,279.545 1688.92,280.545 1691.5,280.5C 1689.17,287.667 1687.34,295.001 1686,302.5C 1684.95,303.517 1683.78,303.684 1682.5,303C 1679.12,299.953 1676.12,296.62 1673.5,293C 1677.34,287.664 1681.34,282.497 1685.5,277.5 Z"/></g>
<g><path style="opacity:1" fill="#dedede" d="M 1775.5,280.5 C 1791.56,292.742 1792.72,306.408 1779,321.5C 1778.33,322.833 1778.33,324.167 1779,325.5C 1785.64,333.136 1792.64,340.47 1800,347.5C 1800.33,354.5 1800.67,361.5 1801,368.5C 1818.11,384.945 1835.28,401.445 1852.5,418C 1854.86,418.263 1856.86,417.43 1858.5,415.5C 1859.09,415.709 1859.59,416.043 1860,416.5C 1862.05,425.041 1864.55,433.374 1867.5,441.5C 1873.15,442.125 1878.81,442.792 1884.5,443.5C 1881.06,448.05 1877.4,452.383 1873.5,456.5C 1869.91,459.085 1866.57,462.085 1863.5,465.5C 1867.61,465.285 1871.28,463.619 1874.5,460.5C 1875.55,460.351 1876.55,460.517 1877.5,461C 1878.82,463.824 1880.48,466.324 1882.5,468.5C 1883.23,469.708 1883.57,471.041 1883.5,472.5C 1880.4,472.154 1877.56,472.821 1875,474.5C 1874.67,477.833 1874.33,481.167 1874,484.5C 1873.5,485 1873,485.5 1872.5,486C 1863.35,488.698 1854.35,491.531 1845.5,494.5C 1841.86,499.767 1838.19,505.101 1834.5,510.5C 1833.5,503.866 1833.17,497.2 1833.5,490.5C 1829.29,492.53 1825.79,495.53 1823,499.5C 1822.8,503.753 1822.3,507.92 1821.5,512C 1819.23,512.758 1817.06,512.591 1815,511.5C 1815.16,507.163 1815.66,502.83 1816.5,498.5C 1812.21,499.311 1808.87,501.477 1806.5,505C 1807.82,509.425 1808.82,513.925 1809.5,518.5C 1807.85,524.967 1805.51,531.133 1802.5,537C 1801.45,537.492 1800.45,537.326 1799.5,536.5C 1796.6,533.688 1793.93,530.688 1791.5,527.5C 1795.16,524.669 1798.83,521.836 1802.5,519C 1801.63,514.126 1798.96,511.459 1794.5,511C 1791.42,513.29 1788.25,515.457 1785,517.5C 1784.33,544.167 1784.33,570.833 1785,597.5C 1790.29,608.416 1795.79,619.083 1801.5,629.5C 1801.5,638.833 1801.5,648.167 1801.5,657.5C 1799.38,666.931 1797.04,676.431 1794.5,686C 1794.64,686.772 1794.98,687.439 1795.5,688C 1797.81,688.497 1800.14,688.663 1802.5,688.5C 1803.82,691.899 1803.82,695.399 1802.5,699C 1796.42,699.788 1790.42,699.621 1784.5,698.5C 1774.02,685.029 1764.36,671.029 1755.5,656.5C 1756.41,642.192 1756.74,627.858 1756.5,613.5C 1756.5,611.833 1756.5,610.167 1756.5,608.5C 1759.04,607.963 1761.04,606.63 1762.5,604.5C 1766.39,597.064 1770.55,589.73 1775,582.5C 1775.5,576.843 1775.67,571.176 1775.5,565.5C 1776.57,559.885 1776.74,554.218 1776,548.5C 1770.67,543.167 1765.33,537.833 1760,532.5C 1759.33,526.167 1759.33,519.833 1760,513.5C 1765.45,512.854 1770.95,512.188 1776.5,511.5C 1787.93,498.902 1799.59,486.402 1811.5,474C 1812.17,473.333 1812.83,473.333 1813.5,474C 1815.41,476.25 1817.58,478.084 1820,479.5C 1824.36,478.06 1828.86,476.893 1833.5,476C 1834.83,475 1834.83,474 1833.5,473C 1827.38,469.274 1821.05,466.107 1814.5,463.5C 1814.23,461.549 1814.89,460.049 1816.5,459C 1825.81,456.639 1835.14,454.473 1844.5,452.5C 1843.43,446.851 1841.1,441.685 1837.5,437C 1836.06,436.219 1834.72,436.386 1833.5,437.5C 1832.19,439.316 1830.69,440.983 1829,442.5C 1828.67,442.167 1828.33,441.833 1828,441.5C 1827.83,431.151 1827.33,420.817 1826.5,410.5C 1815.99,400.158 1805.66,389.658 1795.5,379C 1794.72,371.87 1794.22,364.703 1794,357.5C 1790.33,353.833 1786.67,350.167 1783,346.5C 1780.63,348.703 1778.46,351.037 1776.5,353.5C 1773.14,357.535 1770.14,361.868 1767.5,366.5C 1763.33,367.137 1759.16,367.803 1755,368.5C 1756.43,382.764 1753.43,384.431 1746,373.5C 1745.33,365.833 1745.33,358.167 1746,350.5C 1747.47,348.675 1749.3,348.175 1751.5,349C 1754,352.872 1756.83,356.372 1760,359.5C 1766.01,354.158 1771.34,348.158 1776,341.5C 1776.78,340.056 1776.61,338.723 1775.5,337.5C 1771.05,333.394 1767.39,328.727 1764.5,323.5C 1764.5,319.5 1764.5,315.5 1764.5,311.5C 1766.64,308.835 1769.14,306.502 1772,304.5C 1772.5,302.527 1772.66,300.527 1772.5,298.5C 1772.33,293.821 1772.5,289.155 1773,284.5C 1773.12,282.563 1773.95,281.23 1775.5,280.5 Z"/></g>
<g><path style="opacity:1" fill="#787878" d="M 1764.5,311.5 C 1764.5,315.5 1764.5,319.5 1764.5,323.5C 1760.49,323.666 1756.49,323.499 1752.5,323C 1751.33,320.5 1749.5,318.667 1747,317.5C 1746.42,314.743 1746.75,312.077 1748,309.5C 1750.67,305.5 1753.33,301.5 1756,297.5C 1756.99,298.43 1757.49,299.596 1757.5,301C 1755.56,306.134 1754.06,311.301 1753,316.5C 1753.33,316.833 1753.67,317.167 1754,317.5C 1757.09,314.697 1760.59,312.697 1764.5,311.5 Z"/></g>
<g><path style="opacity:1" fill="#d3d3d3" d="M 1727.5,310.5 C 1731.88,312.7 1735.88,315.533 1739.5,319C 1741.68,321.016 1743.68,323.183 1745.5,325.5C 1743.49,328.829 1741.16,331.829 1738.5,334.5C 1735.17,338.175 1732.17,342.175 1729.5,346.5C 1728.35,347.731 1727.18,347.731 1726,346.5C 1725.09,342.138 1724.42,337.804 1724,333.5C 1728.55,331.618 1731.72,328.451 1733.5,324C 1731.48,319.471 1728.82,315.304 1725.5,311.5C 1725.96,310.702 1726.62,310.369 1727.5,310.5 Z"/></g>
<g><path style="opacity:1" fill="#7a7a7a" d="M 1727.5,310.5 C 1726.62,310.369 1725.96,310.702 1725.5,311.5C 1728.82,315.304 1731.48,319.471 1733.5,324C 1731.72,328.451 1728.55,331.618 1724,333.5C 1724.42,337.804 1725.09,342.138 1726,346.5C 1727.18,347.731 1728.35,347.731 1729.5,346.5C 1732.17,342.175 1735.17,338.175 1738.5,334.5C 1736.49,343.354 1735.99,352.354 1737,361.5C 1740.09,372.034 1743.26,382.534 1746.5,393C 1745.7,397.6 1743.53,398.433 1740,395.5C 1736.13,380.727 1731.96,366.06 1727.5,351.5C 1723.64,348.653 1719.64,345.986 1715.5,343.5C 1716.51,340.745 1718.34,338.745 1721,337.5C 1721.6,335.863 1722.1,334.197 1722.5,332.5C 1719.46,322.566 1716.96,312.566 1715,302.5C 1720.25,302.905 1724.42,305.572 1727.5,310.5 Z"/></g>
<g><path style="opacity:1" fill="#787878" d="M 1776.5,353.5 C 1779.55,355.119 1782.88,356.119 1786.5,356.5C 1783.1,356.18 1779.77,356.513 1776.5,357.5C 1777.93,360.039 1779.6,362.372 1781.5,364.5C 1776.85,366.177 1772.18,366.843 1767.5,366.5C 1770.14,361.868 1773.14,357.535 1776.5,353.5 Z"/></g>
<g><path style="opacity:1" fill="#d8d8d8" d="M 1786.5,356.5 C 1787.75,357.334 1788.41,358.667 1788.5,360.5C 1788.33,361.833 1788.17,363.167 1788,364.5C 1785.73,365.811 1783.56,365.811 1781.5,364.5C 1779.6,362.372 1777.93,360.039 1776.5,357.5C 1779.77,356.513 1783.1,356.18 1786.5,356.5 Z"/></g>
<g><path style="opacity:1" fill="#343434" d="M 1873.5,456.5 C 1873.06,458.074 1872.06,459.241 1870.5,460C 1871.79,460.49 1873.13,460.657 1874.5,460.5C 1871.28,463.619 1867.61,465.285 1863.5,465.5C 1866.57,462.085 1869.91,459.085 1873.5,456.5 Z"/></g>
<g><path style="opacity:1" fill="#1f1f1f" d="M 1882.5,468.5 C 1886.07,469.969 1886.4,472.136 1883.5,475C 1881.21,475.015 1879.04,475.182 1877,475.5C 1876.67,478.833 1876.33,482.167 1876,485.5C 1874.68,487.487 1872.85,488.654 1870.5,489C 1869.75,489.671 1869.41,490.504 1869.5,491.5C 1865.08,489.91 1863.42,491.577 1864.5,496.5C 1864.04,501.574 1866.04,503.241 1870.5,501.5C 1868.74,504.965 1866.4,505.299 1863.5,502.5C 1862.51,498.893 1862.18,495.226 1862.5,491.5C 1856.88,492.814 1851.21,493.814 1845.5,494.5C 1854.35,491.531 1863.35,488.698 1872.5,486C 1873,485.5 1873.5,485 1874,484.5C 1874.33,481.167 1874.67,477.833 1875,474.5C 1877.56,472.821 1880.4,472.154 1883.5,472.5C 1883.57,471.041 1883.23,469.708 1882.5,468.5 Z"/></g>
<g><path style="opacity:1" fill="#dddddd" d="M 1869.5,491.5 C 1870.48,494.625 1870.81,497.958 1870.5,501.5C 1866.04,503.241 1864.04,501.574 1864.5,496.5C 1863.42,491.577 1865.08,489.91 1869.5,491.5 Z"/></g>
<g><path style="opacity:1" fill="#787878" d="M 1722.5,566.5 C 1722.5,566.833 1722.5,567.167 1722.5,567.5C 1718.63,569.96 1716.13,573.294 1715,577.5C 1725.45,587.956 1735.95,598.29 1746.5,608.5C 1743.8,612.364 1740.13,615.03 1735.5,616.5C 1734.57,617.689 1734.24,619.022 1734.5,620.5C 1723.83,603.132 1713.5,585.466 1703.5,567.5C 1703.98,566.522 1704.64,565.689 1705.5,565C 1708.79,562.769 1712.29,560.936 1716,559.5C 1718.64,561.485 1720.81,563.819 1722.5,566.5 Z"/></g>
<g><path style="opacity:1" fill="#7b7b7b" d="M 1775.5,565.5 C 1775.67,571.176 1775.5,576.843 1775,582.5C 1770.55,589.73 1766.39,597.064 1762.5,604.5C 1761.13,604.657 1759.79,604.49 1758.5,604C 1746.54,591.879 1735.2,579.379 1724.5,566.5C 1726,563.468 1728.33,561.968 1731.5,562C 1740.41,571.411 1749.74,580.245 1759.5,588.5C 1760.44,588.392 1761.28,588.059 1762,587.5C 1766.05,579.782 1770.55,572.449 1775.5,565.5 Z"/></g>
<g><path style="opacity:1" fill="#dcdcdc" d="M 1541.5,617.5 C 1539.95,618.622 1538.28,619.122 1536.5,619C 1532.23,614.612 1528.07,610.112 1524,605.5C 1521.05,611.732 1520.89,617.899 1523.5,624C 1520.94,625.079 1518.27,625.579 1515.5,625.5C 1513.5,625.5 1511.5,625.5 1509.5,625.5C 1510.65,616.217 1511.48,606.884 1512,597.5C 1513.48,591.469 1514.81,585.469 1516,579.5C 1524.62,588.958 1533.46,598.291 1542.5,607.5C 1542.83,608.5 1543.17,609.5 1543.5,610.5C 1543.11,612.932 1542.45,615.266 1541.5,617.5 Z"/></g>
<g><path style="opacity:1" fill="#d7d7d7" d="M 1722.5,567.5 C 1723.5,567.47 1724.16,567.97 1724.5,569C 1722.91,571.797 1721.74,574.63 1721,577.5C 1729.98,586.809 1739.31,595.809 1749,604.5C 1750.47,612.613 1747.3,617.28 1739.5,618.5C 1738.84,619.718 1738.17,621.051 1737.5,622.5C 1736.73,621.388 1735.73,620.721 1734.5,620.5C 1734.24,619.022 1734.57,617.689 1735.5,616.5C 1740.13,615.03 1743.8,612.364 1746.5,608.5C 1735.95,598.29 1725.45,587.956 1715,577.5C 1716.13,573.294 1718.63,569.96 1722.5,567.5 Z"/></g>
<g><path style="opacity:1" fill="#8a8a8a" d="M 1722.5,567.5 C 1722.5,567.167 1722.5,566.833 1722.5,566.5C 1723.17,566.5 1723.83,566.5 1724.5,566.5C 1735.2,579.379 1746.54,591.879 1758.5,604C 1759.79,604.49 1761.13,604.657 1762.5,604.5C 1761.04,606.63 1759.04,607.963 1756.5,608.5C 1756.5,610.167 1756.5,611.833 1756.5,613.5C 1755.96,624.422 1755.12,635.422 1754,646.5C 1749.52,638.739 1744.85,631.072 1740,623.5C 1739.51,621.866 1739.34,620.199 1739.5,618.5C 1747.3,617.28 1750.47,612.613 1749,604.5C 1739.31,595.809 1729.98,586.809 1721,577.5C 1721.74,574.63 1722.91,571.797 1724.5,569C 1724.16,567.97 1723.5,567.47 1722.5,567.5 Z"/></g>
<g><path style="opacity:1" fill="#7d7d7d" d="M 1541.5,617.5 C 1542.05,620.212 1543.71,621.712 1546.5,622C 1537.54,625.764 1528.37,628.931 1519,631.5C 1518.51,629.866 1518.34,628.199 1518.5,626.5C 1517.21,626.737 1516.21,626.404 1515.5,625.5C 1518.27,625.579 1520.94,625.079 1523.5,624C 1520.89,617.899 1521.05,611.732 1524,605.5C 1528.07,610.112 1532.23,614.612 1536.5,619C 1538.28,619.122 1539.95,618.622 1541.5,617.5 Z"/></g>
<g><path style="opacity:1" fill="#141414" d="M 1801.5,629.5 C 1809.87,642.54 1818.54,655.54 1827.5,668.5C 1833.92,673.378 1840.92,677.211 1848.5,680C 1850.46,681.451 1851.8,683.284 1852.5,685.5C 1850.46,683.47 1848.13,681.804 1845.5,680.5C 1845.17,681.167 1844.83,681.833 1844.5,682.5C 1847.29,688.69 1849.63,695.023 1851.5,701.5C 1851.79,703.288 1851.45,704.955 1850.5,706.5C 1849.03,707.436 1848.03,708.77 1847.5,710.5C 1854.38,724.915 1861.21,739.249 1868,753.5C 1869.52,755.24 1871.02,756.906 1872.5,758.5C 1872.5,758.833 1872.5,759.167 1872.5,759.5C 1870.42,760.029 1868.58,761.029 1867,762.5C 1866,761.833 1865,761.167 1864,760.5C 1858.43,748.033 1853.43,735.367 1849,722.5C 1847.49,719.476 1845.49,716.809 1843,714.5C 1842.5,716.518 1842,718.518 1841.5,720.5C 1840.11,710.995 1838.94,701.329 1838,691.5C 1835.96,690.577 1833.79,690.244 1831.5,690.5C 1831.83,699.167 1832.17,707.833 1832.5,716.5C 1827.58,717.611 1822.58,717.778 1817.5,717C 1811.92,711.356 1813.26,708.523 1821.5,708.5C 1822.89,707.101 1823.89,705.434 1824.5,703.5C 1826.71,700.956 1826.71,698.289 1824.5,695.5C 1824.5,695.167 1824.5,694.833 1824.5,694.5C 1822.55,683.82 1819.88,673.32 1816.5,663C 1814.43,659.75 1813.09,659.917 1812.5,663.5C 1812.72,666.08 1813.39,668.414 1814.5,670.5C 1815.9,678.76 1817.9,686.76 1820.5,694.5C 1820.5,694.833 1820.5,695.167 1820.5,695.5C 1820.67,696.822 1820.34,697.989 1819.5,699C 1814.51,699.499 1809.51,699.666 1804.5,699.5C 1804.5,701.833 1804.5,704.167 1804.5,706.5C 1802.79,705.365 1802.12,703.698 1802.5,701.5C 1798.15,701.666 1793.82,701.499 1789.5,701C 1787.26,700.95 1785.59,700.117 1784.5,698.5C 1790.42,699.621 1796.42,699.788 1802.5,699C 1803.82,695.399 1803.82,691.899 1802.5,688.5C 1802.13,678.168 1801.79,667.835 1801.5,657.5C 1801.5,648.167 1801.5,638.833 1801.5,629.5 Z"/></g>
<g><path style="opacity:1" fill="#b9b9b9" d="M 1756.5,613.5 C 1756.74,627.858 1756.41,642.192 1755.5,656.5C 1748.01,644.864 1741.01,632.864 1734.5,620.5C 1735.73,620.721 1736.73,621.388 1737.5,622.5C 1738.17,621.051 1738.84,619.718 1739.5,618.5C 1739.34,620.199 1739.51,621.866 1740,623.5C 1744.85,631.072 1749.52,638.739 1754,646.5C 1755.12,635.422 1755.96,624.422 1756.5,613.5 Z"/></g>
<g><path style="opacity:1" fill="#7e7e7e" d="M 1801.5,657.5 C 1801.79,667.835 1802.13,678.168 1802.5,688.5C 1800.14,688.663 1797.81,688.497 1795.5,688C 1794.98,687.439 1794.64,686.772 1794.5,686C 1797.04,676.431 1799.38,666.931 1801.5,657.5 Z"/></g>
<g><path style="opacity:1" fill="#7c7c7c" d="M 1824.5,694.5 C 1822.59,691.548 1821.59,688.214 1821.5,684.5C 1819.36,678.62 1817.53,672.62 1816,666.5C 1815.67,665.833 1815.33,665.167 1815,664.5C 1814.5,666.473 1814.34,668.473 1814.5,670.5C 1813.39,668.414 1812.72,666.08 1812.5,663.5C 1813.09,659.917 1814.43,659.75 1816.5,663C 1819.88,673.32 1822.55,683.82 1824.5,694.5 Z"/></g>
<g><path style="opacity:1" fill="#adadad" d="M 1821.5,684.5 C 1820.52,687.625 1820.19,690.958 1820.5,694.5C 1817.9,686.76 1815.9,678.76 1814.5,670.5C 1814.34,668.473 1814.5,666.473 1815,664.5C 1815.33,665.167 1815.67,665.833 1816,666.5C 1817.53,672.62 1819.36,678.62 1821.5,684.5 Z"/></g>
<g><path style="opacity:1" fill="#e0e0e0" d="M 1852.5,685.5 C 1864.92,696.923 1877.92,707.589 1891.5,717.5C 1891.71,719.144 1891.38,720.644 1890.5,722C 1892.53,721.502 1894.53,721.669 1896.5,722.5C 1895.68,723.386 1894.68,723.719 1893.5,723.5C 1893.34,724.873 1893.51,726.207 1894,727.5C 1904.33,745.402 1914.67,763.402 1925,781.5C 1925.84,784.628 1926.67,787.628 1927.5,790.5C 1927.86,793.625 1928.7,796.625 1930,799.5C 1935.12,805.133 1940.62,810.133 1946.5,814.5C 1952.8,820.297 1958.96,826.297 1965,832.5C 1967.5,837.495 1970,842.495 1972.5,847.5C 1972.48,849.028 1971.82,849.528 1970.5,849C 1961.4,842.121 1951.73,836.287 1941.5,831.5C 1943.84,840.525 1946.34,849.525 1949,858.5C 1949.5,859 1950,859.5 1950.5,860C 1954.5,860.333 1958.5,860.667 1962.5,861C 1963.33,861.833 1964.17,862.667 1965,863.5C 1970.35,873.571 1975.68,883.571 1981,893.5C 1981.67,896.5 1981.67,899.5 1981,902.5C 1979.07,906.793 1977.24,911.126 1975.5,915.5C 1978.6,919.213 1982.44,920.213 1987,918.5C 1987.67,909.833 1987.67,901.167 1987,892.5C 1983.86,882.905 1981.02,873.238 1978.5,863.5C 1978.84,862.662 1979.51,862.328 1980.5,862.5C 1980.93,865.157 1982.26,867.157 1984.5,868.5C 1985.44,868.392 1986.28,868.059 1987,867.5C 1987.44,865.134 1987.94,862.801 1988.5,860.5C 1989.75,853.659 1993.25,848.326 1999,844.5C 1999.33,844.833 1999.67,845.167 2000,845.5C 2000.81,871.53 2000.64,897.53 1999.5,923.5C 1993.8,931.056 1988.64,939.056 1984,947.5C 1983.91,951.942 1986.08,954.942 1990.5,956.5C 1990.67,974.539 1990,992.539 1988.5,1010.5C 1987.13,1019.3 1986.47,1028.3 1986.5,1037.5C 1992.75,1123.47 1998.25,1209.47 2003,1295.5C 1997.86,1296.71 1993.86,1295.04 1991,1290.5C 1981.57,1254.55 1972.07,1218.55 1962.5,1182.5C 1959.23,1171.66 1956.4,1160.66 1954,1149.5C 1953.39,1147.93 1952.56,1146.6 1951.5,1145.5C 1946.51,1121.29 1940.35,1097.29 1933,1073.5C 1928.19,1054.89 1923.69,1036.23 1919.5,1017.5C 1917.56,1000.91 1914.89,984.58 1911.5,968.5C 1902.84,907.077 1893.68,845.743 1884,784.5C 1880.95,778.026 1878.28,771.36 1876,764.5C 1874.97,762.654 1873.8,760.987 1872.5,759.5C 1872.5,759.167 1872.5,758.833 1872.5,758.5C 1866.06,739.183 1859.06,720.183 1851.5,701.5C 1849.63,695.023 1847.29,688.69 1844.5,682.5C 1844.83,681.833 1845.17,681.167 1845.5,680.5C 1848.13,681.804 1850.46,683.47 1852.5,685.5 Z"/></g>
<g><path style="opacity:1" fill="#dddddd" d="M 1841.5,720.5 C 1841.5,723.5 1841.5,726.5 1841.5,729.5C 1843.22,747.335 1845.22,765.002 1847.5,782.5C 1847.89,786.347 1848.89,790.014 1850.5,793.5C 1850.5,795.5 1850.5,797.5 1850.5,799.5C 1849.5,799.5 1848.5,799.5 1847.5,799.5C 1846.83,799.5 1846.17,799.5 1845.5,799.5C 1844.22,795.094 1841.39,792.094 1837,790.5C 1836.52,789.552 1836.35,788.552 1836.5,787.5C 1836.66,786.127 1836.49,784.793 1836,783.5C 1828,774.167 1820,764.833 1812,755.5C 1811.52,754.552 1811.35,753.552 1811.5,752.5C 1812.65,749.847 1814.65,748.68 1817.5,749C 1823.97,755.473 1830.47,761.973 1837,768.5C 1837.67,764.167 1837.67,759.833 1837,755.5C 1834.8,742.574 1833.3,729.574 1832.5,716.5C 1832.17,707.833 1831.83,699.167 1831.5,690.5C 1833.79,690.244 1835.96,690.577 1838,691.5C 1838.94,701.329 1840.11,710.995 1841.5,720.5 Z"/></g>
<g><path style="opacity:1" fill="#dbdbdb" d="M 1821.5,684.5 C 1821.59,688.214 1822.59,691.548 1824.5,694.5C 1824.5,694.833 1824.5,695.167 1824.5,695.5C 1824.5,698.167 1824.5,700.833 1824.5,703.5C 1823.89,705.434 1822.89,707.101 1821.5,708.5C 1815.76,709.404 1810.1,709.404 1804.5,708.5C 1804.5,707.833 1804.5,707.167 1804.5,706.5C 1805.22,704.782 1805.89,702.948 1806.5,701C 1810.78,701.457 1815.12,701.457 1819.5,701C 1820.69,699.981 1821.69,698.814 1822.5,697.5C 1822.14,696.478 1821.48,695.811 1820.5,695.5C 1820.5,695.167 1820.5,694.833 1820.5,694.5C 1820.19,690.958 1820.52,687.625 1821.5,684.5 Z"/></g>
<g><path style="opacity:1" fill="#7b7b7b" d="M 1824.5,695.5 C 1826.71,698.289 1826.71,700.956 1824.5,703.5C 1824.5,700.833 1824.5,698.167 1824.5,695.5 Z"/></g>
<g><path style="opacity:1" fill="#898989" d="M 1820.5,695.5 C 1821.48,695.811 1822.14,696.478 1822.5,697.5C 1821.69,698.814 1820.69,699.981 1819.5,701C 1815.12,701.457 1810.78,701.457 1806.5,701C 1805.89,702.948 1805.22,704.782 1804.5,706.5C 1804.5,704.167 1804.5,701.833 1804.5,699.5C 1809.51,699.666 1814.51,699.499 1819.5,699C 1820.34,697.989 1820.67,696.822 1820.5,695.5 Z"/></g>
<g><path style="opacity:1" fill="#787878" d="M 1851.5,701.5 C 1859.06,720.183 1866.06,739.183 1872.5,758.5C 1871.02,756.906 1869.52,755.24 1868,753.5C 1861.21,739.249 1854.38,724.915 1847.5,710.5C 1848.03,708.77 1849.03,707.436 1850.5,706.5C 1851.45,704.955 1851.79,703.288 1851.5,701.5 Z"/></g>
<g><path style="opacity:1" fill="#797979" d="M 1804.5,708.5 C 1810.1,709.404 1815.76,709.404 1821.5,708.5C 1813.26,708.523 1811.92,711.356 1817.5,717C 1822.58,717.778 1827.58,717.611 1832.5,716.5C 1833.3,729.574 1834.8,742.574 1837,755.5C 1837.67,759.833 1837.67,764.167 1837,768.5C 1830.47,761.973 1823.97,755.473 1817.5,749C 1814.65,748.68 1812.65,749.847 1811.5,752.5C 1804.75,743.577 1797.42,735.077 1789.5,727C 1799.17,726.667 1808.83,726.333 1818.5,726C 1819.45,725.282 1819.62,724.449 1819,723.5C 1804.76,717.086 1790.26,711.252 1775.5,706C 1772.57,703.649 1772.9,702.649 1776.5,703C 1783.33,706.66 1790.5,709.16 1798,710.5C 1800.61,710.467 1802.78,709.8 1804.5,708.5 Z"/></g>
<g><path style="opacity:1" fill="#2a2a2a" d="M 1841.5,729.5 C 1843.16,730.949 1844,732.949 1844,735.5C 1846.08,751.101 1847.24,766.767 1847.5,782.5C 1845.22,765.002 1843.22,747.335 1841.5,729.5 Z"/></g>
<g><path style="opacity:1" fill="#d4d4d4" d="M 1891.5,717.5 C 1905.11,725.978 1918.78,734.478 1932.5,743C 1950.79,767.077 1968.95,791.244 1987,815.5C 1987.79,820.604 1986.13,821.604 1982,818.5C 1972.32,805.792 1963.16,792.792 1954.5,779.5C 1953.36,776.733 1951.53,776.066 1949,777.5C 1948.33,783.167 1948.33,788.833 1949,794.5C 1949.38,795.056 1949.88,795.389 1950.5,795.5C 1957.65,804.473 1964.32,813.806 1970.5,823.5C 1970.84,825.483 1970.18,826.817 1968.5,827.5C 1962.6,822.389 1956.93,817.056 1951.5,811.5C 1946.74,805.232 1941.4,799.398 1935.5,794C 1933.25,793.376 1931.58,792.043 1930.5,790C 1929.25,789.26 1928.25,789.427 1927.5,790.5C 1926.67,787.628 1925.84,784.628 1925,781.5C 1914.67,763.402 1904.33,745.402 1894,727.5C 1893.51,726.207 1893.34,724.873 1893.5,723.5C 1894.68,723.719 1895.68,723.386 1896.5,722.5C 1894.53,721.669 1892.53,721.502 1890.5,722C 1891.38,720.644 1891.71,719.144 1891.5,717.5 Z"/></g>
<g><path style="opacity:1" fill="#dcdcdc" d="M 1768.5,734.5 C 1771.89,734.188 1774.39,735.521 1776,738.5C 1801,770.833 1826,803.167 1851,835.5C 1862,856.833 1873,878.167 1884,899.5C 1885.02,914.514 1886.19,929.514 1887.5,944.5C 1887.46,947.555 1887.12,950.555 1886.5,953.5C 1883.06,955.006 1879.89,954.673 1877,952.5C 1875.16,935.813 1873.16,919.146 1871,902.5C 1862.15,883.63 1853.48,864.63 1845,845.5C 1819.67,810.167 1794.33,774.833 1769,739.5C 1768.51,737.866 1768.34,736.199 1768.5,734.5 Z"/></g>
<g><path style="opacity:1" fill="#8f8f8f" d="M 1954.5,779.5 C 1953.17,779.5 1951.83,779.5 1950.5,779.5C 1949.49,784.869 1949.49,790.203 1950.5,795.5C 1949.88,795.389 1949.38,795.056 1949,794.5C 1948.33,788.833 1948.33,783.167 1949,777.5C 1951.53,776.066 1953.36,776.733 1954.5,779.5 Z"/></g>
<g><path style="opacity:1" fill="#7f7f7f" d="M 1951.5,811.5 C 1947.8,808.5 1946.13,809.5 1946.5,814.5C 1940.62,810.133 1935.12,805.133 1930,799.5C 1928.7,796.625 1927.86,793.625 1927.5,790.5C 1928.25,789.427 1929.25,789.26 1930.5,790C 1931.58,792.043 1933.25,793.376 1935.5,794C 1941.4,799.398 1946.74,805.232 1951.5,811.5 Z"/></g>
<g><path style="opacity:1" fill="#aeaeae" d="M 1836.5,787.5 C 1836.35,788.552 1836.52,789.552 1837,790.5C 1841.39,792.094 1844.22,795.094 1845.5,799.5C 1844.25,799.423 1843.42,798.756 1843,797.5C 1842.33,799.167 1842.33,800.833 1843,802.5C 1846.17,808.172 1849.34,813.839 1852.5,819.5C 1852.17,820.167 1851.83,820.833 1851.5,821.5C 1850.59,819.625 1849.26,818.292 1847.5,817.5C 1843.01,809.861 1838.51,802.194 1834,794.5C 1832.91,791.386 1833.75,789.053 1836.5,787.5 Z"/></g>
<g><path style="opacity:1" fill="#909090" d="M 1845.5,799.5 C 1846.17,799.5 1846.83,799.5 1847.5,799.5C 1848.26,800.391 1849.26,801.058 1850.5,801.5C 1851.89,805.942 1854.05,809.942 1857,813.5C 1858.14,816.777 1858.98,820.11 1859.5,823.5C 1860.5,823.5 1861.5,823.5 1862.5,823.5C 1862.11,827.724 1863.61,831.057 1867,833.5C 1867.49,832.207 1867.66,830.873 1867.5,829.5C 1869.54,832.614 1871.21,835.948 1872.5,839.5C 1870.66,838.878 1869.5,837.544 1869,835.5C 1868.33,837.167 1868.33,838.833 1869,840.5C 1870.26,843.133 1871.42,845.799 1872.5,848.5C 1872.46,851.187 1871.46,851.854 1869.5,850.5C 1864.64,841.229 1859.97,831.896 1855.5,822.5C 1854.5,822.5 1853.5,822.5 1852.5,822.5C 1852.5,823.5 1852.5,824.5 1852.5,825.5C 1850.35,823.206 1848.68,820.54 1847.5,817.5C 1849.26,818.292 1850.59,819.625 1851.5,821.5C 1851.83,820.833 1852.17,820.167 1852.5,819.5C 1849.34,813.839 1846.17,808.172 1843,802.5C 1842.33,800.833 1842.33,799.167 1843,797.5C 1843.42,798.756 1844.25,799.423 1845.5,799.5 Z"/></g>
<g><path style="opacity:1" fill="#b7b7b7" d="M 1850.5,793.5 C 1856.68,805.189 1862.34,817.189 1867.5,829.5C 1867.66,830.873 1867.49,832.207 1867,833.5C 1863.61,831.057 1862.11,827.724 1862.5,823.5C 1861.5,823.5 1860.5,823.5 1859.5,823.5C 1858.98,820.11 1858.14,816.777 1857,813.5C 1854.05,809.942 1851.89,805.942 1850.5,801.5C 1849.26,801.058 1848.26,800.391 1847.5,799.5C 1848.5,799.5 1849.5,799.5 1850.5,799.5C 1850.5,797.5 1850.5,795.5 1850.5,793.5 Z"/></g>
<g><path style="opacity:1" fill="#777777" d="M 1970.5,823.5 C 1974.48,828.927 1978.65,834.26 1983,839.5C 1983.67,843.5 1983.67,847.5 1983,851.5C 1978.9,845.644 1975.57,839.311 1973,832.5C 1971.63,830.638 1970.13,828.972 1968.5,827.5C 1970.18,826.817 1970.84,825.483 1970.5,823.5 Z"/></g>
<g><path style="opacity:1" fill="#767676" d="M 1857.5,903.5 C 1856.67,914.659 1856.17,925.993 1856,937.5C 1855.43,935.359 1854.59,933.359 1853.5,931.5C 1854.69,931.134 1855.36,930.301 1855.5,929C 1855.11,924.706 1853.61,920.873 1851,917.5C 1850.83,918 1850.67,918.5 1850.5,919C 1852.23,921.886 1852.89,925.052 1852.5,928.5C 1847.22,915.773 1842.39,902.773 1838,889.5C 1836.94,885.882 1834.77,884.882 1831.5,886.5C 1822.59,869.506 1812.93,852.84 1802.5,836.5C 1801.37,834.926 1801.2,833.259 1802,831.5C 1818.38,851.901 1834.04,872.901 1849,894.5C 1851.86,897.616 1854.69,900.616 1857.5,903.5 Z"/></g>
<g><path style="opacity:1" fill="#171717" d="M 1972.5,847.5 C 1976.84,852.895 1980.51,858.895 1983.5,865.5C 1984.09,865.709 1984.59,866.043 1985,866.5C 1985.74,864.111 1986.91,862.111 1988.5,860.5C 1987.94,862.801 1987.44,865.134 1987,867.5C 1986.28,868.059 1985.44,868.392 1984.5,868.5C 1982.26,867.157 1980.93,865.157 1980.5,862.5C 1979.52,861.185 1978.52,859.852 1977.5,858.5C 1976.11,860.582 1976.44,862.249 1978.5,863.5C 1981.02,873.238 1983.86,882.905 1987,892.5C 1987.67,901.167 1987.67,909.833 1987,918.5C 1982.44,920.213 1978.6,919.213 1975.5,915.5C 1977.24,911.126 1979.07,906.793 1981,902.5C 1981.67,899.5 1981.67,896.5 1981,893.5C 1975.68,883.571 1970.35,873.571 1965,863.5C 1964.17,862.667 1963.33,861.833 1962.5,861C 1958.5,860.667 1954.5,860.333 1950.5,860C 1950,859.5 1949.5,859 1949,858.5C 1946.34,849.525 1943.84,840.525 1941.5,831.5C 1951.73,836.287 1961.4,842.121 1970.5,849C 1971.82,849.528 1972.48,849.028 1972.5,847.5 Z"/></g>
<g><path style="opacity:1" fill="#b0b0b0" d="M 1872.5,839.5 C 1877.61,849.56 1882.61,859.727 1887.5,870C 1885.89,873.471 1883.22,874.804 1879.5,874C 1870.11,858.053 1861.11,841.886 1852.5,825.5C 1852.5,824.5 1852.5,823.5 1852.5,822.5C 1853.5,822.5 1854.5,822.5 1855.5,822.5C 1859.97,831.896 1864.64,841.229 1869.5,850.5C 1871.46,851.854 1872.46,851.187 1872.5,848.5C 1871.42,845.799 1870.26,843.133 1869,840.5C 1868.33,838.833 1868.33,837.167 1869,835.5C 1869.5,837.544 1870.66,838.878 1872.5,839.5 Z"/></g>
<g><path style="opacity:1" fill="#858585" d="M 1980.5,862.5 C 1979.51,862.328 1978.84,862.662 1978.5,863.5C 1976.44,862.249 1976.11,860.582 1977.5,858.5C 1978.52,859.852 1979.52,861.185 1980.5,862.5 Z"/></g>
<g><path style="opacity:1" fill="#dcdcdc" d="M 1852.5,928.5 C 1853.11,929.391 1853.44,930.391 1853.5,931.5C 1854.59,933.359 1855.43,935.359 1856,937.5C 1856.17,925.993 1856.67,914.659 1857.5,903.5C 1860.8,905.654 1863.3,908.654 1865,912.5C 1867.42,941.148 1869.59,969.815 1871.5,998.5C 1871.46,1001.26 1870.96,1003.93 1870,1006.5C 1856.29,966.752 1843.45,926.752 1831.5,886.5C 1834.77,884.882 1836.94,885.882 1838,889.5C 1842.39,902.773 1847.22,915.773 1852.5,928.5 Z"/></g>
<g><path style="opacity:1" fill="#202020" d="M 1853.5,931.5 C 1853.44,930.391 1853.11,929.391 1852.5,928.5C 1852.89,925.052 1852.23,921.886 1850.5,919C 1850.67,918.5 1850.83,918 1851,917.5C 1853.61,920.873 1855.11,924.706 1855.5,929C 1855.36,930.301 1854.69,931.134 1853.5,931.5 Z"/></g>
<g><path style="opacity:1" fill="#151515" d="M 1988.5,1010.5 C 1990,992.539 1990.67,974.539 1990.5,956.5C 1990.09,952.949 1990.09,949.282 1990.5,945.5C 1991.82,945.33 1992.99,945.663 1994,946.5C 1996.5,955.833 1999,965.167 2001.5,974.5C 2000.98,980.045 1999.81,985.378 1998,990.5C 1997.67,996.167 1997.33,1001.83 1997,1007.5C 1995.37,1010.13 1993.37,1012.46 1991,1014.5C 1989.29,1013.69 1988.46,1012.36 1988.5,1010.5 Z"/></g>
<g><path style="opacity:1" fill="#dfdfdf" d="M 2011.5,968.5 C 2021.14,982.434 2030.81,996.434 2040.5,1010.5C 2033.17,1016.17 2025.83,1021.83 2018.5,1027.5C 2022.33,1037.46 2026.16,1047.46 2030,1057.5C 2030.86,1072.82 2031.53,1088.16 2032,1103.5C 2042.08,1114.58 2052.58,1125.42 2063.5,1136C 2110.25,1149.02 2156.92,1162.35 2203.5,1176C 2215.12,1179.15 2226.78,1181.99 2238.5,1184.5C 2260.62,1188.16 2282.95,1191.33 2305.5,1194C 2308.38,1194.27 2311.05,1195.11 2313.5,1196.5C 2313.5,1196.83 2313.5,1197.17 2313.5,1197.5C 2313.9,1200.04 2313.23,1202.21 2311.5,1204C 2306.43,1207.04 2301.1,1209.21 2295.5,1210.5C 2292.51,1207.35 2288.84,1205.85 2284.5,1206C 2279.65,1211.35 2274.98,1216.85 2270.5,1222.5C 2267.81,1223.8 2265.31,1223.46 2263,1221.5C 2262.33,1220.5 2262.33,1219.5 2263,1218.5C 2266.91,1213.6 2270.41,1208.43 2273.5,1203C 2270.86,1197.39 2267.36,1196.56 2263,1200.5C 2259.02,1207.13 2254.36,1213.13 2249,1218.5C 2246.35,1217.61 2244.52,1215.95 2243.5,1213.5C 2246.79,1209.71 2250.29,1206.04 2254,1202.5C 2254.49,1201.21 2254.66,1199.87 2254.5,1198.5C 2250.44,1196.97 2246.44,1195.14 2242.5,1193C 2241.17,1192.33 2239.83,1192.33 2238.5,1193C 2235.82,1198.7 2233.32,1204.53 2231,1210.5C 2230.11,1211.08 2229.11,1211.41 2228,1211.5C 2211,1205.17 2194,1198.83 2177,1192.5C 2175.35,1192.82 2174.35,1193.82 2174,1195.5C 2171.64,1204.11 2169.48,1212.78 2167.5,1221.5C 2164.57,1222.48 2161.57,1222.82 2158.5,1222.5C 2159.09,1216.65 2160.42,1210.98 2162.5,1205.5C 2162.17,1204.5 2161.83,1203.5 2161.5,1202.5C 2157.9,1205.22 2154.07,1207.55 2150,1209.5C 2145.82,1205.98 2142.32,1201.81 2139.5,1197C 2148.71,1192.77 2157.71,1188.27 2166.5,1183.5C 2154.26,1181.45 2141.93,1180.11 2129.5,1179.5C 2122.35,1178.19 2115.01,1177.19 2107.5,1176.5C 2105.14,1176.34 2102.81,1176.5 2100.5,1177C 2098.28,1180.62 2095.94,1184.12 2093.5,1187.5C 2078.06,1174.89 2063.06,1161.73 2048.5,1148C 2047.39,1147.36 2046.22,1146.86 2045,1146.5C 2038.97,1150.02 2032.8,1153.35 2026.5,1156.5C 2025.18,1154.23 2024.02,1151.9 2023,1149.5C 2020.64,1139.53 2018.47,1129.53 2016.5,1119.5C 2016.41,1118.5 2016.75,1117.67 2017.5,1117C 2019.81,1116.5 2022.14,1116.34 2024.5,1116.5C 2015.89,1088.27 2007.56,1059.94 1999.5,1031.5C 2002.17,1027.51 2005.84,1024.51 2010.5,1022.5C 2011.7,1021.44 2012.36,1020.11 2012.5,1018.5C 2009.06,1005.34 2005.72,992.173 2002.5,979C 2003.85,974.141 2006.85,970.641 2011.5,968.5 Z"/></g>
<g><path style="opacity:1" fill="#7b7b7b" d="M 1999.5,923.5 C 2003.76,937.367 2008.09,951.2 2012.5,965C 2011.66,966.011 2011.33,967.178 2011.5,968.5C 2006.85,970.641 2003.85,974.141 2002.5,979C 2005.72,992.173 2009.06,1005.34 2012.5,1018.5C 2012.36,1020.11 2011.7,1021.44 2010.5,1022.5C 2005.84,1024.51 2002.17,1027.51 1999.5,1031.5C 2007.56,1059.94 2015.89,1088.27 2024.5,1116.5C 2022.14,1116.34 2019.81,1116.5 2017.5,1117C 2016.75,1117.67 2016.41,1118.5 2016.5,1119.5C 2009.21,1092.67 2002.04,1065.67 1995,1038.5C 1992.49,1032.45 1989.66,1032.12 1986.5,1037.5C 1986.47,1028.3 1987.13,1019.3 1988.5,1010.5C 1988.46,1012.36 1989.29,1013.69 1991,1014.5C 1993.37,1012.46 1995.37,1010.13 1997,1007.5C 1997.33,1001.83 1997.67,996.167 1998,990.5C 1999.81,985.378 2000.98,980.045 2001.5,974.5C 1999,965.167 1996.5,955.833 1994,946.5C 1992.99,945.663 1991.82,945.33 1990.5,945.5C 1990.09,949.282 1990.09,952.949 1990.5,956.5C 1986.08,954.942 1983.91,951.942 1984,947.5C 1988.64,939.056 1993.8,931.056 1999.5,923.5 Z"/></g>
<g><path style="opacity:1" fill="#262626" d="M 1911.5,968.5 C 1914.89,984.58 1917.56,1000.91 1919.5,1017.5C 1918.03,1016.65 1917.2,1015.32 1917,1013.5C 1914.42,998.588 1912.58,983.588 1911.5,968.5 Z"/></g>
<g><path style="opacity:1" fill="#e0e0e0" d="M 2551.5,1016.5 C 2586.54,1028.1 2621.87,1039.1 2657.5,1049.5C 2666.29,1052.1 2674.95,1055.1 2683.5,1058.5C 2694.33,1071.5 2705.17,1084.5 2716,1097.5C 2716.46,1100.93 2715.46,1103.93 2713,1106.5C 2708.69,1112.31 2704.19,1117.98 2699.5,1123.5C 2698.33,1123.83 2697.17,1124.17 2696,1124.5C 2669.18,1119.55 2642.34,1114.55 2615.5,1109.5C 2605.72,1107.02 2595.72,1105.02 2585.5,1103.5C 2579.5,1103.84 2574.16,1105.84 2569.5,1109.5C 2561.54,1113.04 2553.54,1116.37 2545.5,1119.5C 2541.86,1119.34 2541.53,1118.18 2544.5,1116C 2533.57,1100.26 2522.9,1084.42 2512.5,1068.5C 2508.39,1068.22 2505.05,1069.89 2502.5,1073.5C 2499.66,1074.11 2497.33,1075.44 2495.5,1077.5C 2493.74,1078.07 2492.08,1078.91 2490.5,1080C 2489.55,1080.72 2489.38,1081.55 2490,1082.5C 2496.36,1089.17 2502.7,1095.84 2509,1102.5C 2514.32,1109.98 2519.82,1117.32 2525.5,1124.5C 2526.4,1125.16 2527.4,1125.82 2528.5,1126.5C 2528.14,1127.18 2527.8,1127.85 2527.5,1128.5C 2528.35,1131.04 2529.35,1133.54 2530.5,1136C 2525,1157.83 2519.5,1179.66 2514,1201.5C 2507.25,1208.41 2499.75,1214.41 2491.5,1219.5C 2490.62,1219.63 2489.96,1219.3 2489.5,1218.5C 2490.58,1216.27 2491.24,1213.94 2491.5,1211.5C 2492.65,1209.6 2493.65,1207.6 2494.5,1205.5C 2495.23,1203.71 2496.23,1202.04 2497.5,1200.5C 2499.34,1199.88 2500.5,1198.54 2501,1196.5C 2503.88,1188.45 2506.88,1180.45 2510,1172.5C 2512.17,1164.33 2514.83,1156.33 2518,1148.5C 2518.67,1146.17 2518.67,1143.83 2518,1141.5C 2507.96,1125.25 2497.79,1109.08 2487.5,1093C 2479.61,1091.15 2471.61,1090.15 2463.5,1090C 2460.94,1088.95 2459.28,1087.11 2458.5,1084.5C 2459.55,1082.74 2461.22,1082.08 2463.5,1082.5C 2466.5,1082.5 2469.5,1082.5 2472.5,1082.5C 2471.96,1079.35 2472.96,1076.85 2475.5,1075C 2480.53,1072.88 2485.36,1070.38 2490,1067.5C 2490.08,1055.13 2489.42,1042.8 2488,1030.5C 2484.1,1026.93 2480.6,1023.1 2477.5,1019C 2483.87,1012.96 2490.54,1007.29 2497.5,1002C 2499.17,1001.33 2500.83,1001.33 2502.5,1002C 2518.73,1007.31 2535.07,1012.14 2551.5,1016.5 Z"/></g>
<g><path style="opacity:1" fill="#7a7a7a" d="M 1522.5,1015.5 C 1505.34,1035.52 1489.01,1056.35 1473.5,1078C 1478.35,1085.35 1484.35,1091.52 1491.5,1096.5C 1493.68,1099.18 1496.01,1101.68 1498.5,1104C 1499.9,1105.44 1501.57,1106.27 1503.5,1106.5C 1498.2,1113.98 1493.04,1121.65 1488,1129.5C 1486.12,1131.91 1485.45,1134.58 1486,1137.5C 1527.28,1176.11 1568.61,1214.78 1610,1253.5C 1610.49,1254.79 1610.66,1256.13 1610.5,1257.5C 1595.56,1264.66 1580.89,1272.49 1566.5,1281C 1564.83,1281.67 1563.17,1281.67 1561.5,1281C 1540.67,1262.51 1520.17,1243.67 1500,1224.5C 1499.33,1223.17 1499.33,1221.83 1500,1220.5C 1501.67,1217.5 1503.33,1214.5 1505,1211.5C 1505.67,1209.83 1505.67,1208.17 1505,1206.5C 1484,1190.83 1463,1175.17 1442,1159.5C 1439.3,1148.96 1437.64,1138.29 1437,1127.5C 1438.44,1126.74 1439.94,1126.07 1441.5,1125.5C 1441.83,1122.17 1442.17,1118.83 1442.5,1115.5C 1441.8,1102.14 1441.3,1088.81 1441,1075.5C 1445.27,1070.77 1450.43,1067.93 1456.5,1067C 1457.33,1067.83 1458.17,1068.67 1459,1069.5C 1469.58,1055.34 1479.91,1041.01 1490,1026.5C 1489.89,1019.16 1487.55,1012.49 1483,1006.5C 1482.51,1005.21 1482.34,1003.87 1482.5,1002.5C 1491.78,1003.75 1501.11,1004.59 1510.5,1005C 1514.69,1008.37 1518.69,1011.87 1522.5,1015.5 Z"/></g>
<g><path style="opacity:1" fill="#838383" d="M 1319.5,998.5 C 1320.29,998.783 1320.96,999.283 1321.5,1000C 1313.49,1029.14 1304.83,1057.97 1295.5,1086.5C 1295.34,1084.47 1295.5,1082.47 1296,1080.5C 1304.58,1053.3 1312.41,1025.96 1319.5,998.5 Z"/></g>
<g><path style="opacity:1" fill="#e0e0e0" d="M 1522.5,1015.5 C 1531.14,1022.47 1539.14,1030.14 1546.5,1038.5C 1532.67,1061.49 1518.34,1084.16 1503.5,1106.5C 1501.57,1106.27 1499.9,1105.44 1498.5,1104C 1496.01,1101.68 1493.68,1099.18 1491.5,1096.5C 1484.35,1091.52 1478.35,1085.35 1473.5,1078C 1489.01,1056.35 1505.34,1035.52 1522.5,1015.5 Z"/></g>
<g><path style="opacity:1" fill="#212121" d="M 2551.5,1016.5 C 2553.53,1016.34 2555.53,1016.5 2557.5,1017C 2589.96,1027.5 2622.62,1037.5 2655.5,1047C 2656.76,1047.42 2657.42,1048.25 2657.5,1049.5C 2621.87,1039.1 2586.54,1028.1 2551.5,1016.5 Z"/></g>
<g><path style="opacity:1" fill="#dddddd" d="M 2456.5,1079.5 C 2456.47,1081.2 2455.81,1082.53 2454.5,1083.5C 2451.19,1087.48 2447.52,1091.15 2443.5,1094.5C 2444.09,1095.8 2445.09,1096.63 2446.5,1097C 2450.26,1097.87 2453.93,1099.03 2457.5,1100.5C 2457.83,1104.79 2455.83,1107.79 2451.5,1109.5C 2445.32,1106.58 2439.65,1102.91 2434.5,1098.5C 2440.32,1086.85 2446.66,1075.52 2453.5,1064.5C 2455.07,1063.37 2456.74,1063.2 2458.5,1064C 2462.26,1065.81 2465.92,1067.81 2469.5,1070C 2465.42,1070.94 2461.42,1072.1 2457.5,1073.5C 2456.65,1075.41 2456.32,1077.41 2456.5,1079.5 Z"/></g>
<g><path style="opacity:1" fill="#8a8a8a" d="M 2525.5,1124.5 C 2519.82,1117.32 2514.32,1109.98 2509,1102.5C 2502.7,1095.84 2496.36,1089.17 2490,1082.5C 2489.38,1081.55 2489.55,1080.72 2490.5,1080C 2492.08,1078.91 2493.74,1078.07 2495.5,1077.5C 2500.15,1078.01 2503.49,1076.17 2505.5,1072C 2507.17,1071.33 2508.83,1071.33 2510.5,1072C 2514.08,1075.85 2517.41,1079.85 2520.5,1084C 2521.48,1086.43 2522.15,1088.93 2522.5,1091.5C 2523.82,1091.33 2524.99,1091.66 2526,1092.5C 2530.1,1100.85 2534.94,1108.68 2540.5,1116C 2536.36,1120.4 2531.36,1123.23 2525.5,1124.5 Z"/></g>
<g><path style="opacity:1" fill="#d3d3d3" d="M 1319.5,998.5 C 1312.41,1025.96 1304.58,1053.3 1296,1080.5C 1295.5,1082.47 1295.34,1084.47 1295.5,1086.5C 1293.06,1088.14 1292.89,1090.14 1295,1092.5C 1295.67,1093.25 1296.5,1093.59 1297.5,1093.5C 1299.67,1094.66 1301.01,1096.49 1301.5,1099C 1295.41,1120.11 1289.58,1141.28 1284,1162.5C 1283.59,1162.96 1283.09,1163.29 1282.5,1163.5C 1282.17,1162.17 1281.83,1160.83 1281.5,1159.5C 1282.01,1152.33 1282.68,1145.33 1283.5,1138.5C 1285.22,1130.74 1285.88,1122.74 1285.5,1114.5C 1285.63,1103.12 1286.47,1091.79 1288,1080.5C 1296.88,1051.95 1306.22,1023.62 1316,995.5C 1317.73,995.974 1318.9,996.974 1319.5,998.5 Z"/></g>
<g><path style="opacity:1" fill="#a1a1a1" d="M 2545.5,1119.5 C 2539.85,1122.99 2533.85,1125.99 2527.5,1128.5C 2527.8,1127.85 2528.14,1127.18 2528.5,1126.5C 2527.4,1125.82 2526.4,1125.16 2525.5,1124.5C 2531.36,1123.23 2536.36,1120.4 2540.5,1116C 2534.94,1108.68 2530.1,1100.85 2526,1092.5C 2524.99,1091.66 2523.82,1091.33 2522.5,1091.5C 2522.15,1088.93 2521.48,1086.43 2520.5,1084C 2517.41,1079.85 2514.08,1075.85 2510.5,1072C 2508.83,1071.33 2507.17,1071.33 2505.5,1072C 2503.49,1076.17 2500.15,1078.01 2495.5,1077.5C 2497.33,1075.44 2499.66,1074.11 2502.5,1073.5C 2505.05,1069.89 2508.39,1068.22 2512.5,1068.5C 2522.9,1084.42 2533.57,1100.26 2544.5,1116C 2541.53,1118.18 2541.86,1119.34 2545.5,1119.5 Z"/></g>
<g><path style="opacity:1" fill="#696969" d="M 2456.5,1079.5 C 2458.69,1080.9 2461.03,1081.9 2463.5,1082.5C 2461.22,1082.08 2459.55,1082.74 2458.5,1084.5C 2457.17,1084.17 2455.83,1083.83 2454.5,1083.5C 2455.81,1082.53 2456.47,1081.2 2456.5,1079.5 Z"/></g>
<g><path style="opacity:1" fill="#878787" d="M 1295.5,1086.5 C 1295.17,1089.19 1295.83,1091.52 1297.5,1093.5C 1296.5,1093.59 1295.67,1093.25 1295,1092.5C 1292.89,1090.14 1293.06,1088.14 1295.5,1086.5 Z"/></g>
<g><path style="opacity:1" fill="#dddddd" d="M 2424.5,1098.5 C 2427.07,1098.15 2429.41,1098.65 2431.5,1100C 2428.29,1105.58 2424.45,1110.74 2420,1115.5C 2418.31,1113.98 2416.81,1112.32 2415.5,1110.5C 2418.52,1106.48 2421.52,1102.48 2424.5,1098.5 Z"/></g>
<g><path style="opacity:1" fill="#252525" d="M 2615.5,1109.5 C 2605.29,1108.53 2595.13,1106.86 2585,1104.5C 2579.87,1106.27 2574.7,1107.93 2569.5,1109.5C 2574.16,1105.84 2579.5,1103.84 2585.5,1103.5C 2595.72,1105.02 2605.72,1107.02 2615.5,1109.5 Z"/></g>
<g><path style="opacity:1" fill="#272727" d="M 1459.5,1106.5 C 1460.62,1108.29 1460.79,1110.29 1460,1112.5C 1458.2,1110.63 1458.03,1108.63 1459.5,1106.5 Z"/></g>
<g><path style="opacity:1" fill="#dbdbdb" d="M 2468.5,1109.5 C 2470.39,1109.3 2471.89,1109.96 2473,1111.5C 2483.29,1124.79 2493.96,1137.79 2505,1150.5C 2505.67,1152.83 2505.67,1155.17 2505,1157.5C 2501.85,1167.78 2498.85,1178.12 2496,1188.5C 2494.12,1193.08 2491.45,1193.41 2488,1189.5C 2488.28,1179.42 2490.12,1169.58 2493.5,1160C 2483.71,1145.59 2473.54,1131.42 2463,1117.5C 2462.33,1116.17 2462.33,1114.83 2463,1113.5C 2465.17,1112.51 2467,1111.18 2468.5,1109.5 Z"/></g>
<g><path style="opacity:1" fill="#e0e0e0" d="M 1965.5,1889.5 C 1964.52,1892.29 1964.19,1895.29 1964.5,1898.5C 1963.18,1898.33 1962.01,1898.66 1961,1899.5C 1957.2,1907.42 1953.7,1915.42 1950.5,1923.5C 1948.89,1923.94 1947.72,1924.94 1947,1926.5C 1935.42,1953.93 1923.09,1980.93 1910,2007.5C 1782.64,1939.9 1655.14,1872.4 1527.5,1805C 1521.22,1801.05 1515.22,1796.72 1509.5,1792C 1402.84,1698.69 1295.84,1605.85 1188.5,1513.5C 1188.41,1512.5 1188.75,1511.67 1189.5,1511C 1195.29,1510.04 1200.95,1509.21 1206.5,1508.5C 1221.83,1507.5 1237.17,1506.5 1252.5,1505.5C 1268.04,1504.46 1283.38,1502.79 1298.5,1500.5C 1302.5,1500.5 1306.5,1500.5 1310.5,1500.5C 1329.02,1499.25 1347.35,1497.58 1365.5,1495.5C 1380.82,1494.2 1396.16,1493.37 1411.5,1493C 1411.96,1493.41 1412.29,1493.91 1412.5,1494.5C 1399.48,1512.53 1385.98,1530.19 1372,1547.5C 1371.49,1549 1371.99,1550.16 1373.5,1551C 1480.15,1573.05 1586.81,1595.38 1693.5,1618C 1726.5,1653.67 1759.5,1689.33 1792.5,1725C 1793.33,1725.17 1794.17,1725.33 1795,1725.5C 1828.28,1716.51 1861.45,1707.35 1894.5,1698C 1895.55,1696.61 1895.72,1695.11 1895,1693.5C 1888.17,1684.5 1881.33,1675.5 1874.5,1666.5C 1885.82,1665.67 1897.15,1665.17 1908.5,1665C 1930.03,1650.41 1951.7,1636.07 1973.5,1622C 1984.99,1613.09 1996.65,1604.42 2008.5,1596C 2014.64,1596.54 2020.81,1597.38 2027,1598.5C 2029.15,1598.36 2030.82,1597.36 2032,1595.5C 2033.93,1592.97 2035.27,1590.3 2036,1587.5C 2023.98,1577.31 2011.81,1567.31 1999.5,1557.5C 1994.99,1561.9 1990.49,1566.23 1986,1570.5C 1981.08,1563.92 1976.58,1557.09 1972.5,1550C 1971.5,1549.5 1970.5,1549 1969.5,1548.5C 1967.68,1550.16 1966.01,1551.99 1964.5,1554C 1963.21,1554.49 1961.87,1554.66 1960.5,1554.5C 1960.56,1551.53 1959.73,1548.86 1958,1546.5C 1957.33,1544.5 1957.33,1542.5 1958,1540.5C 1960.98,1534.71 1963.81,1528.88 1966.5,1523C 1968.17,1522.33 1969.83,1522.33 1971.5,1523C 1979.92,1527.74 1988.59,1532.07 1997.5,1536C 1999.17,1536.67 2000.83,1536.67 2002.5,1536C 2007.13,1527.91 2012.13,1520.08 2017.5,1512.5C 2015.85,1510.91 2013.85,1509.91 2011.5,1509.5C 2010.94,1508.21 2009.94,1507.38 2008.5,1507C 2010.95,1504 2012.45,1500.5 2013,1496.5C 2013.67,1495.75 2014.5,1495.41 2015.5,1495.5C 2022.83,1495.5 2030.17,1495.5 2037.5,1495.5C 2037.23,1492.88 2037.56,1490.38 2038.5,1488C 2042.15,1487.5 2045.82,1487.33 2049.5,1487.5C 2049.65,1486.45 2049.48,1485.45 2049,1484.5C 2039.27,1474.27 2029.77,1463.94 2020.5,1453.5C 2020.89,1447.17 2020.39,1440.84 2019,1434.5C 2014.09,1431.81 2008.92,1429.81 2003.5,1428.5C 1996.27,1428.16 1989.94,1425.66 1984.5,1421C 1980.65,1420.41 1976.99,1419.24 1973.5,1417.5C 1972.44,1416 1971.78,1414.33 1971.5,1412.5C 1973.44,1407.84 1975.44,1403.18 1977.5,1398.5C 1978.1,1397.1 1979.1,1396.1 1980.5,1395.5C 1981.61,1394.05 1981.78,1392.39 1981,1390.5C 1977.94,1383.43 1975.11,1376.26 1972.5,1369C 1971.06,1368.22 1969.72,1368.39 1968.5,1369.5C 1963.95,1372.94 1959.62,1376.6 1955.5,1380.5C 1954.41,1385.92 1951.07,1388.92 1945.5,1389.5C 1931.05,1381.56 1916.72,1373.39 1902.5,1365C 1901.43,1364.26 1900.76,1363.26 1900.5,1362C 1903.57,1353.12 1907.24,1344.45 1911.5,1336C 1913.55,1335.68 1915.55,1336.01 1917.5,1337C 1922.16,1339.88 1926.99,1342.38 1932,1344.5C 1933.14,1344.01 1934.31,1343.68 1935.5,1343.5C 1951.23,1345.34 1966.9,1347.5 1982.5,1350C 1984.61,1364.28 1986.94,1378.44 1989.5,1392.5C 1998.06,1402.9 2007.56,1412.57 2018,1421.5C 2065.43,1384.9 2113.26,1348.9 2161.5,1313.5C 2163.69,1311.91 2163.69,1310.57 2161.5,1309.5C 2158.65,1309.96 2155.98,1310.63 2153.5,1311.5C 2136.48,1312.95 2119.48,1314.61 2102.5,1316.5C 2083.8,1313.38 2065.13,1310.05 2046.5,1306.5C 2038.26,1304.64 2029.92,1302.64 2021.5,1300.5C 2020.34,1296.88 2020.17,1293.21 2021,1289.5C 2021.56,1288.98 2022.23,1288.64 2023,1288.5C 2047.74,1294.56 2072.58,1300.39 2097.5,1306C 2105.68,1306.82 2113.68,1306.66 2121.5,1305.5C 2134.74,1305.12 2147.91,1304.45 2161,1303.5C 2163.17,1304.33 2164.67,1305.83 2165.5,1308C 2166.5,1308.67 2167.5,1308.67 2168.5,1308C 2193.83,1288.67 2219.17,1269.33 2244.5,1250C 2245.74,1249.21 2247.08,1248.71 2248.5,1248.5C 2250.14,1252.01 2252.81,1253.51 2256.5,1253C 2288.17,1228.83 2319.83,1204.67 2351.5,1180.5C 2349.5,1178.36 2347.84,1176.02 2346.5,1173.5C 2370.31,1154.53 2394.31,1135.7 2418.5,1117C 2422.88,1116.54 2425.88,1118.37 2427.5,1122.5C 2427.39,1123.44 2427.06,1124.28 2426.5,1125C 2402.4,1142.8 2378.56,1160.97 2355,1179.5C 2354.25,1180.64 2354.42,1181.64 2355.5,1182.5C 2360.7,1186.86 2365.36,1191.7 2369.5,1197C 2364.83,1204.53 2360.83,1212.36 2357.5,1220.5C 2376.02,1219.8 2394.52,1218.8 2413,1217.5C 2414.17,1217.83 2415.33,1218.17 2416.5,1218.5C 2327.15,1293.85 2237.48,1368.85 2147.5,1443.5C 2146.35,1446.11 2146.18,1448.77 2147,1451.5C 2152.96,1469.99 2158.29,1488.66 2163,1507.5C 2163.79,1509.9 2164.96,1512.07 2166.5,1514C 2248.8,1531.77 2331.13,1549.44 2413.5,1567C 2414.42,1567.37 2415.25,1567.87 2416,1568.5C 2416.67,1579.83 2416.67,1591.17 2416,1602.5C 2288.73,1647.72 2161.23,1692.22 2033.5,1736C 2011.62,1782.98 1990.12,1830.15 1969,1877.5C 1966.94,1881.27 1965.78,1885.27 1965.5,1889.5 Z"/></g>
<g><path style="opacity:1" fill="#848484" d="M 1285.5,1114.5 C 1285.88,1122.74 1285.22,1130.74 1283.5,1138.5C 1283.7,1130.31 1284.37,1122.31 1285.5,1114.5 Z"/></g>
<g><path style="opacity:1" fill="#262626" d="M 1951.5,1145.5 C 1952.56,1146.6 1953.39,1147.93 1954,1149.5C 1956.4,1160.66 1959.23,1171.66 1962.5,1182.5C 1961.25,1182.42 1960.42,1181.76 1960,1180.5C 1957.59,1168.64 1954.75,1156.98 1951.5,1145.5 Z"/></g>
<g><path style="opacity:1" fill="#7c7c7c" d="M 2346.5,1173.5 C 2347.84,1176.02 2349.5,1178.36 2351.5,1180.5C 2319.83,1204.67 2288.17,1228.83 2256.5,1253C 2252.81,1253.51 2250.14,1252.01 2248.5,1248.5C 2263.07,1236.54 2278.07,1225.04 2293.5,1214C 2294.82,1213.18 2295.49,1212.02 2295.5,1210.5C 2301.1,1209.21 2306.43,1207.04 2311.5,1204C 2313.23,1202.21 2313.9,1200.04 2313.5,1197.5C 2314.12,1197.61 2314.62,1197.94 2315,1198.5C 2324.77,1189.22 2335.27,1180.89 2346.5,1173.5 Z"/></g>
<g><path style="opacity:1" fill="#363636" d="M 2107.5,1176.5 C 2115.01,1177.19 2122.35,1178.19 2129.5,1179.5C 2123.82,1179.67 2118.16,1179.5 2112.5,1179C 2110.35,1178.9 2108.68,1178.07 2107.5,1176.5 Z"/></g>
<g><path style="opacity:1" fill="#c3c3c3" d="M 2466.5,1191.5 C 2465.29,1194.61 2463.79,1197.61 2462,1200.5C 2462.09,1203.96 2461.09,1206.96 2459,1209.5C 2458.5,1211.47 2458.34,1213.47 2458.5,1215.5C 2457.25,1215.42 2456.42,1214.76 2456,1213.5C 2452.84,1216.14 2451.67,1215.14 2452.5,1210.5C 2454.92,1205.08 2457.25,1199.58 2459.5,1194C 2455.18,1189.4 2450.68,1184.9 2446,1180.5C 2445.24,1177.84 2446.07,1176.34 2448.5,1176C 2454.4,1181.41 2460.4,1186.57 2466.5,1191.5 Z"/></g>
<g><path style="opacity:1" fill="#212121" d="M 2238.5,1184.5 C 2243.51,1184.33 2248.51,1184.5 2253.5,1185C 2272.72,1188.14 2292.05,1190.8 2311.5,1193C 2312.82,1193.82 2313.49,1194.98 2313.5,1196.5C 2311.05,1195.11 2308.38,1194.27 2305.5,1194C 2282.95,1191.33 2260.62,1188.16 2238.5,1184.5 Z"/></g>
<g><path style="opacity:1" fill="#818181" d="M 2490.5,1196.5 C 2488.8,1196.34 2487.13,1196.51 2485.5,1197C 2478.71,1206.5 2471.38,1215.33 2463.5,1223.5C 2470.12,1214.38 2476.95,1205.38 2484,1196.5C 2486.45,1194.36 2488.61,1194.36 2490.5,1196.5 Z"/></g>
<g><path style="opacity:1" fill="#b8b8b8" d="M 2490.5,1196.5 C 2493,1197.58 2495.34,1198.92 2497.5,1200.5C 2496.23,1202.04 2495.23,1203.71 2494.5,1205.5C 2494.5,1204.17 2494.5,1202.83 2494.5,1201.5C 2492.41,1201.68 2490.41,1201.35 2488.5,1200.5C 2487.07,1200.98 2485.74,1201.64 2484.5,1202.5C 2478.17,1210.5 2471.83,1218.5 2465.5,1226.5C 2464.64,1227.58 2463.64,1227.75 2462.5,1227C 2463.34,1225.99 2463.67,1224.82 2463.5,1223.5C 2471.38,1215.33 2478.71,1206.5 2485.5,1197C 2487.13,1196.51 2488.8,1196.34 2490.5,1196.5 Z"/></g>
<g><path style="opacity:1" fill="#a9a9a9" d="M 2452.5,1210.5 C 2451.67,1215.14 2452.84,1216.14 2456,1213.5C 2456.42,1214.76 2457.25,1215.42 2458.5,1215.5C 2455.52,1222.43 2452.52,1229.43 2449.5,1236.5C 2448.67,1235.5 2447.83,1234.5 2447,1233.5C 2445.73,1235.72 2444.23,1237.72 2442.5,1239.5C 2441.53,1241.74 2441.19,1244.08 2441.5,1246.5C 2440.5,1246.5 2439.5,1246.5 2438.5,1246.5C 2435.76,1245.93 2434.92,1244.26 2436,1241.5C 2441.53,1231.11 2447.03,1220.77 2452.5,1210.5 Z"/></g>
<g><path style="opacity:1" fill="#898989" d="M 2466.5,1191.5 C 2467.6,1192.6 2467.76,1193.93 2467,1195.5C 2461.98,1207.56 2457.98,1219.89 2455,1232.5C 2457.85,1229.43 2460.68,1226.43 2463.5,1223.5C 2463.67,1224.82 2463.34,1225.99 2462.5,1227C 2463.64,1227.75 2464.64,1227.58 2465.5,1226.5C 2471.83,1218.5 2478.17,1210.5 2484.5,1202.5C 2485.74,1201.64 2487.07,1200.98 2488.5,1200.5C 2490.41,1201.35 2492.41,1201.68 2494.5,1201.5C 2494.5,1202.83 2494.5,1204.17 2494.5,1205.5C 2493.65,1207.6 2492.65,1209.6 2491.5,1211.5C 2486.93,1219.41 2480.26,1225.25 2471.5,1229C 2468.5,1231.83 2465.5,1234.67 2462.5,1237.5C 2460.83,1238.83 2459.17,1238.83 2457.5,1237.5C 2460.82,1235.17 2462.15,1232.17 2461.5,1228.5C 2460.61,1229.32 2460.28,1230.32 2460.5,1231.5C 2459.5,1231.5 2458.5,1231.5 2457.5,1231.5C 2457.42,1233.93 2456.42,1235.93 2454.5,1237.5C 2456.12,1238.87 2456.62,1240.54 2456,1242.5C 2451.74,1244.93 2447.9,1247.93 2444.5,1251.5C 2443.83,1250.17 2443.17,1248.83 2442.5,1247.5C 2441.46,1250.54 2439.46,1252.54 2436.5,1253.5C 2437.69,1252.14 2438.69,1250.64 2439.5,1249C 2439.26,1248.1 2438.92,1247.26 2438.5,1246.5C 2439.5,1246.5 2440.5,1246.5 2441.5,1246.5C 2441.19,1244.08 2441.53,1241.74 2442.5,1239.5C 2444.23,1237.72 2445.73,1235.72 2447,1233.5C 2447.83,1234.5 2448.67,1235.5 2449.5,1236.5C 2452.52,1229.43 2455.52,1222.43 2458.5,1215.5C 2458.34,1213.47 2458.5,1211.47 2459,1209.5C 2461.09,1206.96 2462.09,1203.96 2462,1200.5C 2463.79,1197.61 2465.29,1194.61 2466.5,1191.5 Z"/></g>
<g><path style="opacity:1" fill="#8e8e8e" d="M 2436.5,1268.5 C 2435.21,1271.12 2433.55,1273.45 2431.5,1275.5C 2431.76,1274.02 2431.43,1272.69 2430.5,1271.5C 2430.17,1271.67 2429.83,1271.83 2429.5,1272C 2423.89,1279.58 2418.06,1286.75 2412,1293.5C 2411,1292.83 2410,1292.17 2409,1291.5C 2408.13,1288.51 2407.8,1285.51 2408,1282.5C 2416.74,1274.43 2426.07,1267.09 2436,1260.5C 2436.12,1263.77 2434.95,1266.6 2432.5,1269C 2432.83,1269.5 2433.17,1270 2433.5,1270.5C 2434.27,1269.39 2435.27,1268.72 2436.5,1268.5 Z"/></g>
<g><path style="opacity:1" fill="#232323" d="M 2121.5,1305.5 C 2113.68,1306.66 2105.68,1306.82 2097.5,1306C 2072.58,1300.39 2047.74,1294.56 2023,1288.5C 2022.23,1288.64 2021.56,1288.98 2021,1289.5C 2020.17,1293.21 2020.34,1296.88 2021.5,1300.5C 2029.92,1302.64 2038.26,1304.64 2046.5,1306.5C 2043.15,1306.67 2039.82,1306.5 2036.5,1306C 2031.1,1304.99 2025.76,1303.66 2020.5,1302C 2020,1301.5 2019.5,1301 2019,1300.5C 2018.33,1296.5 2018.33,1292.5 2019,1288.5C 2019.8,1287.2 2020.97,1286.53 2022.5,1286.5C 2048.54,1292.34 2074.54,1298.51 2100.5,1305C 2107.49,1305.5 2114.49,1305.67 2121.5,1305.5 Z"/></g>
<g><path style="opacity:1" fill="#afafaf" d="M 2491.5,1211.5 C 2491.24,1213.94 2490.58,1216.27 2489.5,1218.5C 2489.96,1219.3 2490.62,1219.63 2491.5,1219.5C 2478.54,1229.44 2465.54,1239.44 2452.5,1249.5C 2447.11,1255.88 2441.78,1262.21 2436.5,1268.5C 2435.27,1268.72 2434.27,1269.39 2433.5,1270.5C 2433.17,1270 2432.83,1269.5 2432.5,1269C 2434.95,1266.6 2436.12,1263.77 2436,1260.5C 2426.07,1267.09 2416.74,1274.43 2408,1282.5C 2407.8,1285.51 2408.13,1288.51 2409,1291.5C 2410,1292.17 2411,1292.83 2412,1293.5C 2418.06,1286.75 2423.89,1279.58 2429.5,1272C 2429.83,1271.83 2430.17,1271.67 2430.5,1271.5C 2431.43,1272.69 2431.76,1274.02 2431.5,1275.5C 2425.54,1284.43 2418.87,1292.76 2411.5,1300.5C 2407.49,1295.82 2404.49,1290.48 2402.5,1284.5C 2403.9,1281.59 2405.9,1279.09 2408.5,1277C 2417.71,1268.96 2427.04,1261.12 2436.5,1253.5C 2439.46,1252.54 2441.46,1250.54 2442.5,1247.5C 2443.17,1248.83 2443.83,1250.17 2444.5,1251.5C 2447.9,1247.93 2451.74,1244.93 2456,1242.5C 2456.62,1240.54 2456.12,1238.87 2454.5,1237.5C 2456.42,1235.93 2457.42,1233.93 2457.5,1231.5C 2458.5,1231.5 2459.5,1231.5 2460.5,1231.5C 2460.28,1230.32 2460.61,1229.32 2461.5,1228.5C 2462.15,1232.17 2460.82,1235.17 2457.5,1237.5C 2459.17,1238.83 2460.83,1238.83 2462.5,1237.5C 2465.5,1234.67 2468.5,1231.83 2471.5,1229C 2480.26,1225.25 2486.93,1219.41 2491.5,1211.5 Z"/></g>
<g><path style="opacity:1" fill="#797979" d="M 1396.5,1296.5 C 1402.69,1299.18 1408.52,1302.51 1414,1306.5C 1416.15,1312.77 1418.15,1319.1 1420,1325.5C 1420.91,1327.66 1422.08,1329.66 1423.5,1331.5C 1449.2,1349.01 1474.87,1366.51 1500.5,1384C 1502.5,1384.67 1504.5,1384.67 1506.5,1384C 1511.17,1378 1515.83,1372 1520.5,1366C 1526.88,1365.38 1530.71,1368.21 1532,1374.5C 1533.59,1384.79 1534.76,1395.13 1535.5,1405.5C 1534.13,1405.66 1532.79,1405.49 1531.5,1405C 1479.26,1379.71 1426.92,1354.71 1374.5,1330C 1373.45,1328.61 1373.28,1327.11 1374,1325.5C 1381.52,1315.76 1389.02,1306.1 1396.5,1296.5 Z"/></g>
<g><path style="opacity:1" fill="#4b4b4b" d="M 2161.5,1313.5 C 2159.36,1311.63 2156.7,1310.96 2153.5,1311.5C 2155.98,1310.63 2158.65,1309.96 2161.5,1309.5C 2163.69,1310.57 2163.69,1311.91 2161.5,1313.5 Z"/></g>
<g><path style="opacity:1" fill="#7b7b7b" d="M 1989.5,1392.5 C 1986.94,1378.44 1984.61,1364.28 1982.5,1350C 1966.9,1347.5 1951.23,1345.34 1935.5,1343.5C 1945.94,1331.73 1957.27,1321.06 1969.5,1311.5C 2000.21,1327.66 2030.88,1344.16 2061.5,1361C 2061.96,1361.41 2062.29,1361.91 2062.5,1362.5C 2052.76,1371.23 2042.43,1379.23 2031.5,1386.5C 2030.91,1386.29 2030.41,1385.96 2030,1385.5C 2029.44,1381.81 2028.77,1378.15 2028,1374.5C 2027.44,1373.98 2026.77,1373.64 2026,1373.5C 2013.19,1379.31 2001.03,1385.65 1989.5,1392.5 Z"/></g>
<g><path style="opacity:1" fill="#161616" d="M 1980.5,1395.5 C 1972.72,1391.11 1964.72,1386.94 1956.5,1383C 1955.75,1382.33 1955.41,1381.5 1955.5,1380.5C 1959.62,1376.6 1963.95,1372.94 1968.5,1369.5C 1969.72,1368.39 1971.06,1368.22 1972.5,1369C 1975.11,1376.26 1977.94,1383.43 1981,1390.5C 1981.78,1392.39 1981.61,1394.05 1980.5,1395.5 Z"/></g>
<g><path style="opacity:1" fill="#a1a1a1" d="M 1955.5,1380.5 C 1955.41,1381.5 1955.75,1382.33 1956.5,1383C 1964.72,1386.94 1972.72,1391.11 1980.5,1395.5C 1979.1,1396.1 1978.1,1397.1 1977.5,1398.5C 1976.73,1397.83 1976.07,1396.99 1975.5,1396C 1971.88,1394.9 1968.55,1393.24 1965.5,1391C 1962.83,1390.33 1960.17,1390.33 1957.5,1391C 1959.86,1391.59 1960.86,1393.09 1960.5,1395.5C 1962.59,1395.56 1964.09,1396.56 1965,1398.5C 1966.31,1410.46 1966.81,1422.46 1966.5,1434.5C 1965.83,1423.31 1964.99,1411.97 1964,1400.5C 1963.42,1399 1962.58,1397.67 1961.5,1396.5C 1960.89,1396.62 1960.56,1396.96 1960.5,1397.5C 1958.95,1395.62 1956.95,1394.62 1954.5,1394.5C 1951.33,1393.08 1948.33,1391.42 1945.5,1389.5C 1951.07,1388.92 1954.41,1385.92 1955.5,1380.5 Z"/></g>
<g><path style="opacity:1" fill="#8c8c8c" d="M 1977.5,1398.5 C 1975.44,1403.18 1973.44,1407.84 1971.5,1412.5C 1971.78,1414.33 1972.44,1416 1973.5,1417.5C 1976.99,1419.24 1980.65,1420.41 1984.5,1421C 1989.94,1425.66 1996.27,1428.16 2003.5,1428.5C 2003.28,1431.67 2001.61,1433.51 1998.5,1434C 1997.83,1435 1997.17,1436 1996.5,1437C 1998.59,1437.79 2000.42,1438.96 2002,1440.5C 2002.75,1441.64 2002.58,1442.64 2001.5,1443.5C 1998.79,1441.67 1996.12,1439.84 1993.5,1438C 1987.07,1435.8 1980.74,1433.3 1974.5,1430.5C 1972.83,1432.51 1972.16,1434.84 1972.5,1437.5C 1970.5,1437.5 1968.5,1437.5 1966.5,1437.5C 1966.5,1436.5 1966.5,1435.5 1966.5,1434.5C 1966.81,1422.46 1966.31,1410.46 1965,1398.5C 1964.09,1396.56 1962.59,1395.56 1960.5,1395.5C 1960.86,1393.09 1959.86,1391.59 1957.5,1391C 1960.17,1390.33 1962.83,1390.33 1965.5,1391C 1968.55,1393.24 1971.88,1394.9 1975.5,1396C 1976.07,1396.99 1976.73,1397.83 1977.5,1398.5 Z"/></g>
<g><path style="opacity:1" fill="#bfbfbf" d="M 1960.5,1397.5 C 1960.56,1396.96 1960.89,1396.62 1961.5,1396.5C 1962.58,1397.67 1963.42,1399 1964,1400.5C 1964.99,1411.97 1965.83,1423.31 1966.5,1434.5C 1966.5,1435.5 1966.5,1436.5 1966.5,1437.5C 1965.88,1437.39 1965.38,1437.06 1965,1436.5C 1964.95,1427.11 1964.45,1420.45 1963.5,1416.5C 1962.23,1410.2 1961.23,1403.87 1960.5,1397.5 Z"/></g>
<g><path style="opacity:1" fill="#838383" d="M 1954.5,1394.5 C 1956.95,1394.62 1958.95,1395.62 1960.5,1397.5C 1961.23,1403.87 1962.23,1410.2 1963.5,1416.5C 1963.82,1423.69 1963.49,1430.69 1962.5,1437.5C 1961.7,1424.84 1960.86,1412.17 1960,1399.5C 1958.27,1397.6 1956.44,1395.93 1954.5,1394.5 Z"/></g>
<g><path style="opacity:1" fill="#7b7b7b" d="M 2003.5,1428.5 C 2008.92,1429.81 2014.09,1431.81 2019,1434.5C 2020.39,1440.84 2020.89,1447.17 2020.5,1453.5C 2012.6,1448.39 2003.93,1445.22 1994.5,1444C 1991.36,1443.01 1988.52,1441.51 1986,1439.5C 1981.67,1440.48 1977.5,1440.81 1973.5,1440.5C 1972.6,1439.79 1972.26,1438.79 1972.5,1437.5C 1972.16,1434.84 1972.83,1432.51 1974.5,1430.5C 1980.74,1433.3 1987.07,1435.8 1993.5,1438C 1996.12,1439.84 1998.79,1441.67 2001.5,1443.5C 2002.58,1442.64 2002.75,1441.64 2002,1440.5C 2000.42,1438.96 1998.59,1437.79 1996.5,1437C 1997.17,1436 1997.83,1435 1998.5,1434C 2001.61,1433.51 2003.28,1431.67 2003.5,1428.5 Z"/></g>
<g><path style="opacity:1" fill="#dfdfdf" d="M 1966.5,1437.5 C 1968.5,1437.5 1970.5,1437.5 1972.5,1437.5C 1972.26,1438.79 1972.6,1439.79 1973.5,1440.5C 1972.43,1443.72 1972.43,1446.89 1973.5,1450C 1982.15,1451.07 1990.82,1451.9 1999.5,1452.5C 1999.61,1455.39 2000.78,1457.72 2003,1459.5C 2008.04,1461.39 2013.21,1462.89 2018.5,1464C 2019.73,1464.78 2020.73,1465.78 2021.5,1467C 2020.21,1471.97 2018.88,1476.8 2017.5,1481.5C 2016.74,1481.92 2015.9,1482.26 2015,1482.5C 1996.41,1477.05 1977.57,1472.39 1958.5,1468.5C 1954.81,1469.16 1952.98,1471.49 1953,1475.5C 1952.62,1474.94 1952.12,1474.61 1951.5,1474.5C 1947.5,1465.09 1943.83,1455.43 1940.5,1445.5C 1946.09,1442.81 1952.09,1440.97 1958.5,1440C 1960.07,1439.39 1961.4,1438.56 1962.5,1437.5C 1963.49,1430.69 1963.82,1423.69 1963.5,1416.5C 1964.45,1420.45 1964.95,1427.11 1965,1436.5C 1965.38,1437.06 1965.88,1437.39 1966.5,1437.5 Z"/></g>
<g><path style="opacity:1" fill="#141414" d="M 2020.5,1453.5 C 2029.77,1463.94 2039.27,1474.27 2049,1484.5C 2049.48,1485.45 2049.65,1486.45 2049.5,1487.5C 2045.82,1487.33 2042.15,1487.5 2038.5,1488C 2037.56,1490.38 2037.23,1492.88 2037.5,1495.5C 2030.17,1495.5 2022.83,1495.5 2015.5,1495.5C 2001.38,1493.61 1987.04,1492.44 1972.5,1492C 1970.78,1488.3 1969.45,1484.47 1968.5,1480.5C 1983.38,1483.59 1998.21,1486.93 2013,1490.5C 2014.11,1490.41 2015.11,1490.08 2016,1489.5C 2016.4,1486.79 2016.9,1484.13 2017.5,1481.5C 2018.88,1476.8 2020.21,1471.97 2021.5,1467C 2020.73,1465.78 2019.73,1464.78 2018.5,1464C 2013.21,1462.89 2008.04,1461.39 2003,1459.5C 2000.78,1457.72 1999.61,1455.39 1999.5,1452.5C 1990.82,1451.9 1982.15,1451.07 1973.5,1450C 1972.43,1446.89 1972.43,1443.72 1973.5,1440.5C 1977.5,1440.81 1981.67,1440.48 1986,1439.5C 1988.52,1441.51 1991.36,1443.01 1994.5,1444C 2003.93,1445.22 2012.6,1448.39 2020.5,1453.5 Z"/></g>
<g><path style="opacity:1" fill="#7f7f7f" d="M 2017.5,1481.5 C 2016.9,1484.13 2016.4,1486.79 2016,1489.5C 2015.11,1490.08 2014.11,1490.41 2013,1490.5C 1998.21,1486.93 1983.38,1483.59 1968.5,1480.5C 1969.45,1484.47 1970.78,1488.3 1972.5,1492C 1987.04,1492.44 2001.38,1493.61 2015.5,1495.5C 2014.5,1495.41 2013.67,1495.75 2013,1496.5C 2012.45,1500.5 2010.95,1504 2008.5,1507C 2009.94,1507.38 2010.94,1508.21 2011.5,1509.5C 1994.8,1507.35 1978.13,1505.02 1961.5,1502.5C 1957.57,1493.37 1954.23,1484.04 1951.5,1474.5C 1952.12,1474.61 1952.62,1474.94 1953,1475.5C 1952.98,1471.49 1954.81,1469.16 1958.5,1468.5C 1977.57,1472.39 1996.41,1477.05 2015,1482.5C 2015.9,1482.26 2016.74,1481.92 2017.5,1481.5 Z"/></g>
<g><path style="opacity:1" fill="#131313" d="M 2114.5,1487.5 C 2116.14,1487.29 2117.64,1487.62 2119,1488.5C 2120.67,1490.83 2122.33,1493.17 2124,1495.5C 2124.67,1496.83 2124.67,1498.17 2124,1499.5C 2108.13,1514.37 2091.96,1528.87 2075.5,1543C 2067.5,1543.67 2059.5,1543.67 2051.5,1543C 2047,1537.83 2042.5,1532.67 2038,1527.5C 2037.29,1525.63 2037.79,1524.13 2039.5,1523C 2047.78,1517.72 2055.78,1512.06 2063.5,1506C 2064.83,1505.33 2066.17,1505.33 2067.5,1506C 2071.5,1509.33 2075.5,1512.67 2079.5,1516C 2080.83,1516.67 2082.17,1516.67 2083.5,1516C 2094.4,1506.92 2104.74,1497.42 2114.5,1487.5 Z"/></g>
<g><path style="opacity:1" fill="#2c2c2c" d="M 1365.5,1495.5 C 1347.35,1497.58 1329.02,1499.25 1310.5,1500.5C 1310.61,1499.88 1310.94,1499.38 1311.5,1499C 1329.48,1497.5 1347.48,1496.33 1365.5,1495.5 Z"/></g>
<g><path style="opacity:1" fill="#303030" d="M 1298.5,1500.5 C 1283.38,1502.79 1268.04,1504.46 1252.5,1505.5C 1254.39,1504.68 1256.39,1503.84 1258.5,1503C 1271.85,1502.23 1285.18,1501.39 1298.5,1500.5 Z"/></g>
<g><path style="opacity:1" fill="#343434" d="M 1206.5,1508.5 C 1200.95,1509.21 1195.29,1510.04 1189.5,1511C 1188.75,1511.67 1188.41,1512.5 1188.5,1513.5C 1186.29,1512.54 1185.96,1511.04 1187.5,1509C 1193.82,1508.5 1200.16,1508.33 1206.5,1508.5 Z"/></g>
<g><path style="opacity:1" fill="#797979" d="M 1455.5,1798.5 C 1459.55,1799.74 1461.55,1802.58 1461.5,1807C 1455.29,1856.12 1448.62,1905.12 1441.5,1954C 1431.71,1953.81 1422.05,1952.47 1412.5,1950C 1411.64,1949.31 1410.98,1948.48 1410.5,1947.5C 1425.88,1897.91 1440.88,1848.24 1455.5,1798.5 Z"/></g>
<g><path style="opacity:1" fill="#d1d1d1" d="M 1550.5,1895.5 C 1548.17,1897 1546.01,1898.66 1544,1900.5C 1542.27,1899.26 1540.44,1898.26 1538.5,1897.5C 1536.77,1897.16 1536.27,1896.16 1537,1894.5C 1542.67,1889.83 1548.33,1885.17 1554,1880.5C 1554.33,1877.5 1554.67,1874.5 1555,1871.5C 1555.72,1870.94 1556.56,1870.61 1557.5,1870.5C 1560.71,1872.2 1564.05,1873.7 1567.5,1875C 1568.02,1875.56 1568.36,1876.23 1568.5,1877C 1563.05,1883.62 1557.05,1889.79 1550.5,1895.5 Z"/></g>
<g><path style="opacity:1" fill="#787878" d="M 1585.5,1887.5 C 1586.87,1887.34 1588.21,1887.51 1589.5,1888C 1585.54,1894.75 1581.71,1901.59 1578,1908.5C 1575.95,1912.41 1573.12,1913.24 1569.5,1911C 1568.45,1909.61 1568.28,1908.11 1569,1906.5C 1574.73,1900.28 1580.23,1893.94 1585.5,1887.5 Z"/></g>
<g><path style="opacity:1" fill="#808080" d="M 1965.5,1889.5 C 1969.76,1921.48 1973.59,1953.48 1977,1985.5C 1968.88,1986.47 1960.72,1987.47 1952.5,1988.5C 1950.9,1988.45 1949.4,1988.12 1948,1987.5C 1946.49,1984.98 1945.82,1982.31 1946,1979.5C 1950.09,1977.21 1954.25,1975.04 1958.5,1973C 1959.8,1972.2 1960.47,1971.03 1960.5,1969.5C 1959.54,1964.43 1958.38,1959.43 1957,1954.5C 1956.67,1954.17 1956.33,1953.83 1956,1953.5C 1954.3,1955.37 1952.46,1957.04 1950.5,1958.5C 1950.92,1956.91 1951.59,1955.41 1952.5,1954C 1952.17,1953.5 1951.83,1953 1951.5,1952.5C 1950.85,1954.85 1949.52,1956.51 1947.5,1957.5C 1952.19,1948.62 1956.52,1939.45 1960.5,1930C 1960.41,1928.89 1960.08,1927.89 1959.5,1927C 1956.71,1925.35 1953.71,1924.18 1950.5,1923.5C 1953.7,1915.42 1957.2,1907.42 1961,1899.5C 1962.01,1898.66 1963.18,1898.33 1964.5,1898.5C 1964.19,1895.29 1964.52,1892.29 1965.5,1889.5 Z"/></g>
<g><path style="opacity:1" fill="#878787" d="M 1550.5,1895.5 C 1550.63,1896.24 1550.46,1896.91 1550,1897.5C 1545.99,1903.98 1542.15,1903.98 1538.5,1897.5C 1540.44,1898.26 1542.27,1899.26 1544,1900.5C 1546.01,1898.66 1548.17,1897 1550.5,1895.5 Z"/></g>
<g><path style="opacity:1" fill="#7b7b7b" d="M 1561.5,2035.5 C 1560.69,2034.57 1559.85,2033.57 1559,2032.5C 1556.13,2038.23 1553.3,2043.9 1550.5,2049.5C 1548.19,2047.82 1547.19,2045.49 1547.5,2042.5C 1548.9,2024.52 1550.07,2006.52 1551,1988.5C 1555.26,1976.03 1560.1,1963.87 1565.5,1952C 1571.92,1951.13 1578.25,1951.46 1584.5,1953C 1576.67,1963.5 1568.83,1974 1561,1984.5C 1560.44,1988.38 1561.77,1991.38 1565,1993.5C 1568.61,1990.05 1572.11,1986.38 1575.5,1982.5C 1578.93,1985.17 1581.26,1988.67 1582.5,1993C 1576.56,2004.48 1570.06,2015.65 1563,2026.5C 1561.85,2029.39 1561.35,2032.39 1561.5,2035.5 Z"/></g>
<g><path style="opacity:1" fill="#a9a9a9" d="M 1950.5,1958.5 C 1949.58,1961.09 1947.91,1963.09 1945.5,1964.5C 1944.66,1961.82 1945.33,1959.49 1947.5,1957.5C 1949.52,1956.51 1950.85,1954.85 1951.5,1952.5C 1951.83,1953 1952.17,1953.5 1952.5,1954C 1951.59,1955.41 1950.92,1956.91 1950.5,1958.5 Z"/></g>
<g><path style="opacity:1" fill="#878787" d="M 1959.5,2004.5 C 1960.6,2003.4 1961.93,2003.24 1963.5,2004C 1969.3,2006.65 1975.13,2009.15 1981,2011.5C 1982.44,2017.11 1983.1,2022.78 1983,2028.5C 1974.96,2020.63 1967.13,2012.63 1959.5,2004.5 Z"/></g>
<g><path style="opacity:1" fill="#838383" d="M 1954.5,2046.5 C 1956.63,2047.63 1958.96,2047.8 1961.5,2047C 1961.96,2046.59 1962.29,2046.09 1962.5,2045.5C 1961.31,2044.57 1959.98,2044.24 1958.5,2044.5C 1966.27,2040.33 1974.27,2036.33 1982.5,2032.5C 1983.09,2032.71 1983.59,2033.04 1984,2033.5C 1984.58,2037.72 1985.41,2041.89 1986.5,2046C 1986.36,2046.77 1986.02,2047.44 1985.5,2048C 1974.83,2048.67 1964.17,2048.67 1953.5,2048C 1952.29,2046.89 1952.62,2046.39 1954.5,2046.5 Z"/></g>
<g><path style="opacity:1" fill="#dddddd" d="M 1561.5,2035.5 C 1558.43,2066.39 1556.09,2097.39 1554.5,2128.5C 1553.73,2129.26 1553.23,2130.26 1553,2131.5C 1552.67,2130.83 1552.33,2130.17 1552,2129.5C 1551.83,2112.99 1551.33,2096.66 1550.5,2080.5C 1550.5,2070.17 1550.5,2059.83 1550.5,2049.5C 1553.3,2043.9 1556.13,2038.23 1559,2032.5C 1559.85,2033.57 1560.69,2034.57 1561.5,2035.5 Z"/></g>
<g><path style="opacity:1" fill="#bfbfbf" d="M 1958.5,2044.5 C 1959.98,2044.24 1961.31,2044.57 1962.5,2045.5C 1962.29,2046.09 1961.96,2046.59 1961.5,2047C 1958.96,2047.8 1956.63,2047.63 1954.5,2046.5C 1955.6,2045.4 1956.94,2044.73 1958.5,2044.5 Z"/></g>
<g><path style="opacity:1" fill="#747474" d="M 1550.5,2080.5 C 1551.33,2096.66 1551.83,2112.99 1552,2129.5C 1552.33,2130.17 1552.67,2130.83 1553,2131.5C 1553.23,2130.26 1553.73,2129.26 1554.5,2128.5C 1554.57,2132.9 1553.4,2136.9 1551,2140.5C 1550.5,2120.5 1550.33,2100.5 1550.5,2080.5 Z"/></g>
</svg>
